<?xml version="1.0" encoding="utf-8"?>
<!-- Generator: Adobe Illustrator 26.0.1, SVG Export Plug-In . SVG Version: 6.00 Build 0)  -->
<svg version="1.1" id="Layer_1" xmlns="http://www.w3.org/2000/svg" xmlns:xlink="http://www.w3.org/1999/xlink" x="0px" y="0px"
	 viewBox="0 0 26.6 23.7" style="enable-background:new 0 0 26.6 23.7;" xml:space="preserve">
<style type="text/css">
	.st0{fill:url(#SVGID_1_);}
	.st1{fill:url(#SVGID_00000109750463842632241070000017288230767384624573_);}
	.st2{fill:#FFFFFF;}
	.st3{fill:url(#SVGID_00000000216846693852024350000003089296369529116344_);}
	.st4{fill:url(#SVGID_00000056400042137149433920000015624294443242535830_);}
</style>
<g>
	
		<linearGradient id="SVGID_1_" gradientUnits="userSpaceOnUse" x1="15.4444" y1="19.1" x2="26.6" y2="19.1" gradientTransform="matrix(1 0 0 -1 0 24.7)">
		<stop  offset="0" style="stop-color:#EB712A"/>
		<stop  offset="0.2311" style="stop-color:#EF8528"/>
		<stop  offset="0.4715" style="stop-color:#F29426"/>
		<stop  offset="0.6242" style="stop-color:#F39A24"/>
	</linearGradient>
	<path class="st0" d="M21,0c-3.1,0-5.6,2.5-5.6,5.6s2.5,5.6,5.6,5.6s5.6-2.5,5.6-5.6C26.6,2.4,24.1,0,21,0z"/>
	
		<linearGradient id="SVGID_00000096781600685236677000000000460679568012082308_" gradientUnits="userSpaceOnUse" x1="8.330230e-02" y1="15.65" x2="23.464" y2="15.65" gradientTransform="matrix(1 0 0 -1 0 24.7)">
		<stop  offset="0" style="stop-color:#343434"/>
		<stop  offset="0.5455" style="stop-color:#696968"/>
		<stop  offset="1" style="stop-color:#696968"/>
	</linearGradient>
	<path style="fill:url(#SVGID_00000096781600685236677000000000460679568012082308_);" d="M21.3,12.8c-0.2,0.7-0.3,1.3-0.5,1.7
		l-0.1,0.2c-0.1,0.5-0.5,0.8-1,0.8h-0.3c-0.2,0-0.4-0.1-0.6-0.3c-0.1-0.2-0.2-0.4-0.2-0.6l0.3-2c0-0.1,0.1-0.3,0.2-0.4
		c-2.9-0.7-5-3.3-5-6.4c0-0.5,0.1-0.9,0.1-1.4H6c-0.5,0-0.9-0.3-1-0.8L4.6,1.9C4.4,1.3,3.9,0.8,3.2,0.8H0.8C0.3,0.8,0,1.2,0,1.6
		c0,0.5,0.4,0.8,0.8,0.8h1.3c0.5,0,0.9,0.3,1,0.8l3.2,13c0.2,0.6,0.7,1.1,1.4,1.1h13.1c0.7,0,1.2-0.4,1.4-1.1l1.1-4.4
		c-0.7,0.3-1.4,0.4-2.1,0.5C21.4,12.6,21.4,12.7,21.3,12.8z M6.6,9.2c-0.1-0.5-0.3-1-0.4-1.4L6.1,7.4C6,7.2,6.1,7,6.2,6.8
		c0.1-0.2,0.4-0.3,0.6-0.3h0.9c0.5,0,0.9,0.3,0.9,0.8l0.3,1.8c0,0.2,0,0.4-0.2,0.6C8.6,9.9,8.3,10,8.1,10H7.6
		C7.1,9.9,6.7,9.6,6.6,9.2z M9.7,15.2c-0.1,0.2-0.4,0.3-0.6,0.3H9c-0.5,0-0.9-0.3-1-0.8l-0.1-0.2c-0.1-0.5-0.3-1.1-0.5-1.8
		c-0.1-0.2,0-0.4,0.1-0.6c0.1-0.2,0.4-0.3,0.6-0.3h0.5c0.5,0,0.9,0.3,1,0.8l0.3,2C9.9,14.8,9.9,15.1,9.7,15.2z M13.4,14.8
		c0,0.4-0.3,0.7-0.7,0.7c-0.4,0-0.8-0.3-0.8-0.7l-0.3-2.1c0-0.2,0-0.4,0.2-0.6c0.1-0.2,0.4-0.3,0.6-0.3h0.3c0.5,0,0.9,0.4,0.9,0.9
		v2.1H13.4z M13.4,9.1c0,0.5-0.4,0.9-0.9,0.9h-0.7c-0.5,0-0.9-0.3-1-0.8l-0.2-1.9c0-0.2,0-0.4,0.2-0.6c0.2-0.2,0.4-0.3,0.6-0.3h1.2
		c0.5,0,0.8,0.4,0.8,0.9V9.1z M17.2,12.7l-0.3,2.1c-0.1,0.4-0.4,0.7-0.8,0.7c-0.4,0-0.7-0.3-0.7-0.7v-2.1c0-0.5,0.4-0.9,0.9-0.9h0.3
		c0.2,0,0.4,0.1,0.6,0.3C17.2,12.3,17.2,12.5,17.2,12.7z"/>
	<polygon class="st2" points="21,0.8 22.4,3.6 25.6,4.1 23.3,6.3 23.8,9.4 21,8 18.2,9.4 18.7,6.3 16.5,4.1 19.6,3.6 	"/>
	
		<linearGradient id="SVGID_00000019636334962173521670000013742646527578151833_" gradientUnits="userSpaceOnUse" x1="6.2059" y1="3.5" x2="11.0184" y2="3.5" gradientTransform="matrix(1 0 0 -1 0 24.7)">
		<stop  offset="0" style="stop-color:#343434"/>
		<stop  offset="0.5455" style="stop-color:#696968"/>
		<stop  offset="1" style="stop-color:#696968"/>
	</linearGradient>
	<ellipse style="fill:url(#SVGID_00000019636334962173521670000013742646527578151833_);" cx="8.6" cy="21.2" rx="2.4" ry="2.5"/>
	
		<linearGradient id="SVGID_00000170250380719975218340000000104713859964707487_" gradientUnits="userSpaceOnUse" x1="17.7675" y1="3.5" x2="22.5777" y2="3.5" gradientTransform="matrix(1 0 0 -1 0 24.7)">
		<stop  offset="0" style="stop-color:#343434"/>
		<stop  offset="0.5455" style="stop-color:#696968"/>
		<stop  offset="1" style="stop-color:#696968"/>
	</linearGradient>
	<ellipse style="fill:url(#SVGID_00000170250380719975218340000000104713859964707487_);" cx="20.2" cy="21.2" rx="2.4" ry="2.5"/>
</g>
</svg>
