<?xml version="1.0" encoding="utf-8"?>
<!-- Generator: Adobe Illustrator 26.0.1, SVG Export Plug-In . SVG Version: 6.00 Build 0)  -->
<svg version="1.1" id="Layer_1" xmlns="http://www.w3.org/2000/svg" xmlns:xlink="http://www.w3.org/1999/xlink" x="0px" y="0px"
	 viewBox="0 0 54 54" style="enable-background:new 0 0 54 54;" xml:space="preserve">
<style type="text/css">
	.st0{fill:#FFFFFF;}
	.st1{fill-rule:evenodd;clip-rule:evenodd;fill:#263470;}
	.st2{fill:#263470;}
	.st3{fill:#21C463;}
</style>
<circle class="st0" cx="27" cy="27" r="27"/>
<path class="st1" d="M18.8,5.6c-1,0-1.9,0.8-1.9,1.8v38.1c0,1,0.8,1.8,1.9,1.8h18.2c1,0,1.9-0.8,1.9-1.8V7.5c0-1-0.8-1.8-1.9-1.8
	H18.8z M16.1,7.5c0-1.5,1.2-2.7,2.7-2.7h18.2c1.5,0,2.7,1.2,2.7,2.7v38.1c0,1.5-1.2,2.7-2.7,2.7H18.8c-1.5,0-2.7-1.2-2.7-2.7V7.5z"
	/>
<path class="st2" d="M28.9,9h-2.8c-0.9,0-1.6,0.7-1.6,1.6v31.9c0,0.9,0.7,1.6,1.6,1.6h2.8c0.9,0,1.6-0.7,1.6-1.6V10.6
	C30.5,9.7,29.8,9,28.9,9z"/>
<path class="st3" d="M28.3,12.5c-2.2-0.7-4.6-0.8-6.9-0.4c-2.3,0.4-4.5,1.3-6.4,2.7c-1.9,1.4-3.4,3.1-4.5,5.2
	C9.5,21.9,9,24.2,9,26.5s0.5,4.6,1.6,6.6c1.1,2.1,2.6,3.8,4.5,5.2c1.9,1.4,4.1,2.3,6.4,2.7c2.3,0.4,4.7,0.2,6.9-0.4V12.5z"/>
<path class="st0" d="M24.2,32.5v1.9h-1.7v-1.8c-1.5,0-3-0.5-4.2-1.3l0.9-2c1,0.7,2.1,1.1,3.3,1.2v-2.8c-1.9-0.4-4-1.1-4-3.5
	c0-1.8,1.3-3.3,4-3.6v-1.9h1.7v1.8c1.2,0.1,2.4,0.4,3.4,1l-0.9,2.1c-0.8-0.4-1.7-0.7-2.6-0.8v2.8c1.9,0.4,4,1,4,3.4
	C28.1,30.6,26.8,32.1,24.2,32.5z M22.4,25.1v-2.4c-0.9,0.2-1.3,0.7-1.3,1.2S21.7,24.8,22.4,25.1L22.4,25.1z M25.4,29.1
	c0-0.6-0.5-0.9-1.2-1.2v2.3C25,30.1,25.4,29.6,25.4,29.1L25.4,29.1z"/>
</svg>
