<svg width="55" height="52" viewBox="0 0 55 52" fill="none" xmlns="http://www.w3.org/2000/svg">
<path d="M54.3604 19.7685C54.0099 18.6845 53.0484 17.9145 51.9109 17.812L36.4595 16.409L30.3496 2.1082C29.8991 1.06014 28.8731 0.381714 27.7331 0.381714C26.5932 0.381714 25.5672 1.06014 25.1166 2.11065L19.0067 16.409L3.55289 17.812C2.41742 17.917 1.4584 18.6845 1.10591 19.7685C0.753423 20.8525 1.07895 22.0415 1.93791 22.791L13.6173 33.0339L10.1733 48.2047C9.92134 49.3202 10.3543 50.4732 11.2798 51.1422C11.7773 51.5016 12.3593 51.6846 12.9463 51.6846C13.4523 51.6846 13.9543 51.5482 14.4048 51.2786L27.7331 43.3128L41.0565 51.2786C42.0315 51.8652 43.2605 51.8117 44.184 51.1422C45.1099 50.4711 45.5425 49.3177 45.2905 48.2047L41.8465 33.0339L53.5259 22.793C54.3849 22.0415 54.7128 20.8545 54.3604 19.7685Z" fill="#F0F0F0"/>
</svg>
