<svg width="54" height="52" viewBox="0 0 54 52" fill="none" xmlns="http://www.w3.org/2000/svg">
<path d="M53.4033 19.7685C53.0529 18.6845 52.0914 17.9145 50.9539 17.812L35.5025 16.409L29.3926 2.1082C28.9421 1.06014 27.9161 0.381714 26.7761 0.381714C25.6361 0.381714 24.6101 1.06014 24.1596 2.11065L18.0497 16.409L2.59586 17.812C1.46039 17.917 0.501365 18.6845 0.148878 19.7685C-0.203608 20.8525 0.121921 22.0415 0.980877 22.791L12.6603 33.0339L9.21631 48.2047C8.9643 49.3202 9.39725 50.4732 10.3228 51.1422C10.8203 51.5016 11.4023 51.6846 11.9892 51.6846C12.4953 51.6846 12.9973 51.5482 13.4478 51.2786L26.7761 43.3128L40.0995 51.2786C41.0745 51.8652 42.3035 51.8117 43.227 51.1422C44.1529 50.4711 44.5854 49.3177 44.3334 48.2047L40.8894 33.0339L52.5689 22.793C53.4278 22.0415 53.7558 20.8545 53.4033 19.7685Z" fill="url(#paint0_linear_60_3910)"/>
<defs>
<linearGradient id="paint0_linear_60_3910" x1="18.1902" y1="26.5056" x2="45.9673" y2="44.687" gradientUnits="userSpaceOnUse">
<stop stop-color="#FFC107"/>
<stop offset="1" stop-color="#FFE38E"/>
</linearGradient>
</defs>
</svg>
