<svg width="232" height="187" viewBox="0 0 232 187" fill="none" xmlns="http://www.w3.org/2000/svg">
<path fill-rule="evenodd" clip-rule="evenodd" d="M9.45542 86.7362C12.0167 82.9311 9.49461 79.4149 7.82571 77.4595C7.13035 78.6819 4.60734 83.7964 9.45542 86.7362Z" fill="#CED3F8"/>
<path fill-rule="evenodd" clip-rule="evenodd" d="M24.17 124.726C24.0489 124.726 23.9294 124.671 23.8505 124.568C18.1056 117.032 11.1627 102.968 8.90594 86.101C8.87652 85.8804 9.03073 85.6797 9.25034 85.6503C9.46996 85.6222 9.67178 85.7747 9.70134 85.994C11.9373 102.706 18.8061 116.626 24.4887 124.081C24.6229 124.258 24.5891 124.509 24.4129 124.643C24.3403 124.699 24.2547 124.726 24.17 124.726Z" fill="#CED3F8"/>
<path fill-rule="evenodd" clip-rule="evenodd" d="M18.9335 120.228C10.9223 115.58 6.24473 120.521 2.52734 124.148C5.08674 125.385 13.6656 130.394 18.9335 120.228Z" fill="#CED3F8"/>
<path fill-rule="evenodd" clip-rule="evenodd" d="M14.4263 112.582C9.12531 107.369 4.50138 110.277 0.886719 112.354C2.62945 113.827 8.29928 119.435 14.4263 112.582Z" fill="#CED3F8"/>
<path fill-rule="evenodd" clip-rule="evenodd" d="M11.2677 103.449C7.88697 98.0271 3.43865 99.5265 -3.59779e-09 100.536C1.15986 102.116 4.76958 107.943 11.2677 103.449Z" fill="#CED3F8"/>
<path fill-rule="evenodd" clip-rule="evenodd" d="M8.9374 94.3999C7.85859 90.5774 4.94383 90.7031 2.7168 90.7098C3.13556 91.8534 4.28111 95.9567 8.9374 94.3999Z" fill="#CED3F8"/>
<path fill-rule="evenodd" clip-rule="evenodd" d="M22.6234 117.106C21.2594 109.049 26.7887 106.71 30.9351 104.759C31.1661 107.257 32.6538 115.895 22.6234 117.106Z" fill="#CED3F8"/>
<path fill-rule="evenodd" clip-rule="evenodd" d="M17.8767 108.699C15.6328 102.017 20.0303 99.2819 23.3019 97.063C23.8334 99.1588 26.2613 106.321 17.8767 108.699Z" fill="#CED3F8"/>
<path fill-rule="evenodd" clip-rule="evenodd" d="M13.7866 97.9643C13.5763 93.152 16.9805 92.1877 19.548 91.3491C19.5009 92.8257 19.7414 97.987 13.7866 97.9643Z" fill="#CED3F8"/>
<path fill-rule="evenodd" clip-rule="evenodd" d="M11.5389 90.5371C10.9041 87.8033 12.7513 86.8871 14.132 86.1328C14.2627 86.9834 14.9526 89.9125 11.5389 90.5371Z" fill="#CED3F8"/>
<path fill-rule="evenodd" clip-rule="evenodd" d="M44.3993 137.877C53.4353 125.458 47.558 112.341 31.5969 103.825C25.6808 116.666 27.9171 134.662 44.3993 137.877Z" fill="#E9EDF7"/>
<path fill-rule="evenodd" clip-rule="evenodd" d="M44.7075 145.214C41.8651 124.944 24.0799 117.833 0.892578 124.482C7.11599 142.258 25.9311 157.416 44.7075 145.214Z" fill="#DDE2F8"/>
<path fill-rule="evenodd" clip-rule="evenodd" d="M44.7072 145.616C44.6571 145.616 44.6061 145.606 44.5568 145.586C40.9187 144.112 35.0567 141.135 28.8505 137.983C21.3407 134.17 12.829 129.846 6.22563 127.14C6.02073 127.056 5.92255 126.822 6.00668 126.616C6.09094 126.411 6.32487 126.312 6.53017 126.398C13.1634 129.117 21.6903 133.446 29.2139 137.269C35.4044 140.412 41.2516 143.382 44.8581 144.843C45.0634 144.926 45.1625 145.16 45.0793 145.364C45.0162 145.521 44.8659 145.616 44.7072 145.616Z" fill="#CED3F8"/>
<path fill-rule="evenodd" clip-rule="evenodd" d="M152.86 107.047C151.669 108.641 156.579 126.708 160.095 125.995C162.835 125.44 162.308 122.523 162.033 121.479C161.6 119.833 160.3 115.944 161.569 115.817C163.863 115.586 165.895 125.841 166.543 128.309C167.192 130.775 169.122 135.392 171.809 136.259C174.495 137.124 175.684 137.167 174.309 132.913C172.935 128.657 169.181 120.615 172.183 121.905C175.186 123.195 176.648 130.116 178.94 133.775C181.234 137.433 186.844 143.619 188.124 140.645C189.267 137.984 181.024 128.256 183.18 127.688C184.904 127.235 186.128 130.718 189.571 135.241C193.013 139.764 196.309 143.999 199.186 142.2C201.496 140.756 198.679 138.325 196.853 135.863C195.029 133.401 192.615 129.875 194.358 129.874C196.098 129.873 203.86 142.775 208.109 141.275C210.922 140.281 208.39 138.055 206.428 135.07C204.465 132.086 203.998 130.89 204.716 130.7C205.434 130.512 208.735 134.108 210.497 136.131C212.258 138.154 215.475 140.453 217.417 138.878C219.358 137.302 216.201 134.353 214.782 133.533C213.363 132.715 212.359 131.329 212.607 130.909C212.855 130.489 217.73 132.859 218.556 130.157C219.382 127.454 214.501 125.643 211.77 126.36C209.039 127.079 205.325 127.953 205.063 126.957C204.802 125.96 207.962 125.13 210.454 124.474C212.946 123.819 213.786 122.99 213.61 122.325C213.029 120.112 209.297 119.096 207.477 119.575C205.655 120.054 195.801 124.065 195.414 122.595C195.028 121.124 198.882 120.009 200.895 119.479C202.907 118.951 207.601 117.716 206.953 115.249C206.305 112.781 199.631 113.115 195.861 114.36C192.09 115.606 186.135 118.084 185.836 116.946C185.537 115.806 189.976 113.016 192.419 112.374C194.863 111.731 199.547 111.819 198.748 108.782C197.95 105.744 194.057 106.108 189.26 107.369C187.256 107.896 182.307 109.251 180.06 111.644C177.5 114.368 175.777 115.306 175.115 114.742C173.795 113.618 176.368 111.521 178.543 110.442C180.718 109.362 187.677 106.416 185.438 103.353C183.198 100.289 178.203 104.087 176.045 105.417C173.883 106.745 166.684 112.088 165.503 110.522C164.323 108.954 168.868 107.15 170.219 106.441C171.568 105.731 173.891 103.369 172.654 102.655C171.416 101.941 154.984 104.206 152.86 107.047Z" fill="#E9EDF7"/>
<path fill-rule="evenodd" clip-rule="evenodd" d="M6.69727 163.332C6.69727 158.942 51.9013 155.385 107.663 155.385C163.423 155.385 208.627 158.942 208.627 163.332C208.627 167.72 163.423 171.278 107.663 171.278C51.9013 171.278 6.69727 167.72 6.69727 163.332Z" fill="#E9EFFF"/>
<path fill-rule="evenodd" clip-rule="evenodd" d="M92.5492 34.683C91.518 35.6888 89.8689 35.669 88.8631 34.6383C87.8573 33.6079 87.876 31.9571 88.9072 30.9513C89.9371 29.9454 91.5889 29.9659 92.5946 30.9962C93.6004 32.0269 93.579 33.6772 92.5492 34.683ZM90.8063 26.2998C87.2072 26.2562 84.2529 29.1394 84.2095 32.7383C84.1656 36.3378 87.048 39.2908 90.6485 39.335L97.1005 39.3484L97.2449 32.897C97.2877 29.2975 94.4055 26.3442 90.8063 26.2998Z" fill="#FF6D2D"/>
<path fill-rule="evenodd" clip-rule="evenodd" d="M30.6809 65.9382C31.9385 61.5459 36.5188 59.0047 40.9113 60.262C45.3041 61.5192 47.8455 66.1001 46.588 70.4923C45.3305 74.8846 40.7505 77.4258 36.3574 76.1686C31.965 74.9113 29.4237 70.3305 30.6809 65.9382Z" fill="#2B2998"/>
<path fill-rule="evenodd" clip-rule="evenodd" d="M69.6822 4.76702L69.6093 0.801269L70.4397 0.576172L70.3425 5.81681L69.6693 5.99937L67.4906 2.63856L67.3395 6.63106L66.6662 6.81376L63.9395 2.3387L64.7656 2.11467L66.7075 5.49167L66.8529 1.54865L67.5218 1.36742L69.6822 4.76702Z" fill="white"/>
<path fill-rule="evenodd" clip-rule="evenodd" d="M85.7614 1.16868C85.7225 1.0249 85.7327 0.893826 85.792 0.77479C85.8514 0.656022 85.9663 0.573366 86.1368 0.52709C86.3078 0.480947 86.4496 0.493787 86.5646 0.565342C86.6783 0.637432 86.7545 0.745098 86.7933 0.888743C86.8307 1.0265 86.8187 1.1537 86.7558 1.27033C86.6916 1.38695 86.5753 1.46854 86.4041 1.51482C86.2341 1.56096 86.0936 1.54919 85.9832 1.47977C85.8726 1.41009 85.7989 1.30644 85.7614 1.16868Z" fill="white"/>
<path opacity="0.397926" fill-rule="evenodd" clip-rule="evenodd" d="M122.124 110.613L90.4094 167.43C88.7737 168.673 86.7594 168.132 87.1032 166.53C88.0675 164.988 114.904 108.299 114.904 108.299L122.124 110.613Z" fill="#FF6D2D"/>
<path opacity="0.397926" fill-rule="evenodd" clip-rule="evenodd" d="M113.066 111.838L68.6891 159.428C66.8045 160.243 64.9785 159.237 65.694 157.764C66.9983 156.496 106.61 107.867 106.61 107.867L113.066 111.838Z" fill="#FF6D2D"/>
<path opacity="0.397926" fill-rule="evenodd" clip-rule="evenodd" d="M138.803 98.1406L142.766 158.228C143.884 159.361 145.538 159.584 145.887 158.109C145.693 156.437 145.758 99.0715 145.758 99.0715L138.803 98.1406Z" fill="#FF6D2D"/>
<path opacity="0.397926" fill-rule="evenodd" clip-rule="evenodd" d="M144.484 108.607L176.2 165.424C177.834 166.667 179.847 166.126 179.505 164.524C178.542 162.98 151.704 106.292 151.704 106.292L144.484 108.607Z" fill="#FF6D2D"/>
<path fill-rule="evenodd" clip-rule="evenodd" d="M161.279 76.0808C177.732 54.5835 173.349 33.6096 169.915 30.6543C168.922 30.8227 168.103 31.9187 167.463 33.1591C151.367 64.3524 123.915 73.6078 105.85 79.2639C87.7831 84.9201 80.7228 95.8888 87.0649 104.973C106.347 116.415 145.834 96.2606 161.279 76.0808Z" fill="#CD7D00"/>
<path opacity="0.4" fill-rule="evenodd" clip-rule="evenodd" d="M153.956 35.0146C144.793 40.4473 128.962 50.98 128.962 50.98C129.044 52.9862 128.136 58.193 131.852 57.4453C135.568 56.6977 148.483 52.387 148.483 52.387L153.956 35.0146Z" fill="#FF6D2D"/>
<path fill-rule="evenodd" clip-rule="evenodd" d="M125.352 74.6681C138.301 84.3167 148.082 91.6046 148.082 91.6046C158.335 81.3863 170.297 64.1783 172.518 51.6341C174.738 39.0926 169.591 33.2442 167.027 31.5809C158.081 29.472 148.483 38.694 139.626 47.5588C136.442 50.746 141.952 60.6046 138.411 64.4271C130.319 73.1581 125.352 74.6681 125.352 74.6681Z" fill="#F6F6FB"/>
<mask id="mask0_60_5799" style="mask-type:alpha" maskUnits="userSpaceOnUse" x="61" y="44" width="65" height="41">
<path fill-rule="evenodd" clip-rule="evenodd" d="M61.4199 45.0789L70.2047 61.7679C77.1652 68.1905 92.7199 84.6629 92.7199 84.6629L125.352 74.6679C114.334 72.2631 71.72 38.318 61.4199 45.0789Z" fill="white"/>
</mask>
<g mask="url(#mask0_60_5799)">
<path fill-rule="evenodd" clip-rule="evenodd" d="M61.4199 45.0789L70.2047 61.7679C77.1652 68.1905 92.7199 84.6629 92.7199 84.6629L125.352 74.6679C114.334 72.2631 71.72 38.318 61.4199 45.0789Z" fill="#FF6D2D"/>
</g>
<path fill-rule="evenodd" clip-rule="evenodd" d="M44.551 152.022C44.8676 150.779 45.767 149.844 45.767 149.844L39.8156 149.844C39.179 151.442 38.4564 152.59 37.916 153.804C39.4645 154.399 41.7286 152.864 44.551 152.022Z" fill="#A54A31"/>
<path fill-rule="evenodd" clip-rule="evenodd" d="M44.5519 152.022C41.7296 152.864 39.4655 154.399 37.917 153.804C37.0975 154.399 25.0252 158.742 23.7972 159.582C22.5388 160.443 22.722 161.778 24.0544 161.778C26.0003 161.778 42.0297 161.072 42.0297 161.072C42.3567 161.425 42.6194 161.778 42.6194 161.778L46.2822 161.778C47.3757 159.883 47.0792 154.201 44.5519 152.022Z" fill="#20196F"/>
<mask id="mask1_60_5799" style="mask-type:alpha" maskUnits="userSpaceOnUse" x="39" y="74" width="110" height="76">
<path fill-rule="evenodd" clip-rule="evenodd" d="M39.4336 149.844C41.1904 144.737 58.6081 90.4275 66.374 85.8613C70.4518 83.4632 125.351 74.668 125.351 74.668L148.081 91.6044C142.346 101.888 138.046 104.395 113.066 104.008C99.7554 103.804 80.6881 101.86 73.662 100.998C71.863 113.082 59.4892 134.298 46.2494 149.844C42.65 149.844 39.4336 149.844 39.4336 149.844Z" fill="white"/>
</mask>
<g mask="url(#mask1_60_5799)">
<path fill-rule="evenodd" clip-rule="evenodd" d="M39.4336 149.844C41.1904 144.737 58.6081 90.4275 66.374 85.8613C70.4518 83.4632 125.351 74.668 125.351 74.668L148.081 91.6044C142.346 101.888 138.046 104.395 113.066 104.008C99.7554 103.804 80.6881 101.86 73.662 100.998C71.863 113.082 59.4892 134.298 46.2494 149.844C42.65 149.844 39.4336 149.844 39.4336 149.844Z" fill="#FF6D2D"/>
</g>
<path fill-rule="evenodd" clip-rule="evenodd" d="M63.0857 92.6314C63.2271 93.6599 69.883 92.1941 69.6688 91.0465C69.3567 89.3787 66.6686 90.2534 65.951 90.4901C65.2334 90.7255 62.909 91.3474 63.0857 92.6314Z" fill="#131147"/>
<path fill-rule="evenodd" clip-rule="evenodd" d="M70.2119 93.88C69.5663 92.8394 68.6095 90.0508 68.6095 90.0508L63.7383 91.1194C64.4233 92.5733 64.0578 93.7944 63.8461 94.5099C65.1604 95.0476 67.7831 94.5487 70.2119 93.88Z" fill="#A54A31"/>
<path fill-rule="evenodd" clip-rule="evenodd" d="M69.8432 92.9952C68.9195 92.2155 64.5485 92.6087 62.4917 94.9787C61.7527 95.6969 50.6314 102.268 49.5165 103.295C48.3739 104.345 49.0315 106.048 51.0329 106.192C53.0089 106.334 67.6955 101.705 67.6955 101.705C68.0765 102.012 68.3931 102.329 68.3931 102.329L72.5442 100.627C72.8648 98.3946 72.707 94.8235 69.8432 92.9952Z" fill="#20196F"/>
<path fill-rule="evenodd" clip-rule="evenodd" d="M63.0844 92.6317C63.4116 91.0468 69.0033 89.7722 69.6675 91.0468C68.6812 86.0768 74.6041 66.4613 70.7711 60.2501C67.5677 55.0607 61.4186 45.0791 61.4186 45.0791C53.0789 53.5627 63.0844 92.6317 63.0844 92.6317Z" fill="#FF6D2D"/>
<path fill-rule="evenodd" clip-rule="evenodd" d="M72.4815 100.238C73.1817 102.285 67.9804 103.359 62.428 104.53C56.8772 105.702 50.4945 107.303 49.4902 105.441C48.4866 103.581 57.4201 101.532 61.2441 100.606C65.0676 99.6804 71.8195 98.3015 72.4815 100.238Z" fill="#131147"/>
<path fill-rule="evenodd" clip-rule="evenodd" d="M130.331 85.999C120.196 79.3825 110.062 72.7646 99.9297 66.1481C102.654 48.024 105.38 29.8996 108.104 11.7749C118.237 18.3915 128.371 25.0082 138.505 31.6248C135.779 49.7493 133.055 67.8735 130.331 85.999Z" fill="white"/>
<path fill-rule="evenodd" clip-rule="evenodd" d="M114.28 44.0212C112.22 42.6731 111.186 41.9963 109.113 40.6388C109.573 37.3339 109.803 35.6872 110.251 32.4585C112.307 33.7929 113.342 34.4647 115.41 35.8065C114.965 39.0458 114.737 40.7016 114.28 44.0212Z" fill="#FF6D2D"/>
<path opacity="0.4" fill-rule="evenodd" clip-rule="evenodd" d="M120.319 47.9682C118.281 46.6347 117.255 45.9633 115.195 44.6151C115.653 41.2955 115.881 39.641 116.325 36.4009C118.393 37.7432 119.428 38.4146 121.487 39.7507C121.027 42.9901 120.791 44.6459 120.319 47.9682Z" fill="#FF6D2D"/>
<path opacity="0.4" fill-rule="evenodd" clip-rule="evenodd" d="M126.16 51.7877C124.15 50.473 123.136 49.8096 121.098 48.4748C121.571 45.1525 121.807 43.4967 122.267 40.2573C124.325 41.5935 125.352 42.2595 127.382 43.5783C126.901 46.811 126.655 48.4681 126.16 51.7877Z" fill="#FF6D2D"/>
<path fill-rule="evenodd" clip-rule="evenodd" d="M117.949 52.387C113.897 49.7161 111.846 48.3626 107.662 45.6047C107.75 44.9694 107.796 44.6524 107.884 44.0171C112.06 46.7643 114.117 48.1191 118.175 50.7901C118.084 51.4294 118.04 51.749 117.949 52.387Z" fill="#BBC0E6"/>
<path fill-rule="evenodd" clip-rule="evenodd" d="M117.42 56.1224C113.387 53.4542 111.344 52.1033 107.141 49.3227C107.229 48.6901 107.274 48.3731 107.363 47.7378C111.558 50.509 113.605 51.8612 117.645 54.5308C117.556 55.1688 117.51 55.4871 117.42 56.1224Z" fill="#BBC0E6"/>
<path fill-rule="evenodd" clip-rule="evenodd" d="M116.896 59.8328C112.879 57.1698 110.845 55.8203 106.621 53.0223C106.709 52.3924 106.754 52.0781 106.842 51.4468C111.058 54.2381 113.096 55.5889 117.119 58.2545C117.029 58.8872 116.984 59.2028 116.896 59.8328Z" fill="#BBC0E6"/>
<path fill-rule="evenodd" clip-rule="evenodd" d="M116.377 63.4987C112.378 60.8438 110.353 59.4997 106.107 56.6869C106.196 56.065 106.238 55.7534 106.327 55.1274C110.561 57.9361 112.59 59.2816 116.597 61.9405C116.509 62.5665 116.465 62.8781 116.377 63.4987Z" fill="#BBC0E6"/>
<path fill-rule="evenodd" clip-rule="evenodd" d="M115.868 67.1049C111.884 64.4634 109.867 63.1273 105.602 60.3025C105.687 59.6899 105.73 59.3837 105.817 58.7671C110.073 61.5878 112.094 62.928 116.083 65.5748C115.996 66.1887 115.954 66.495 115.868 67.1049Z" fill="#BBC0E6"/>
<path fill-rule="evenodd" clip-rule="evenodd" d="M129.887 60.2621C125.958 57.6701 123.976 56.3621 119.947 53.7058C120.04 53.0679 120.085 52.7482 120.177 52.1089C124.214 54.7665 126.203 56.0772 130.132 58.6639C130.035 59.3032 129.985 59.6242 129.887 60.2621Z" fill="#BBC0E6"/>
<path fill-rule="evenodd" clip-rule="evenodd" d="M129.316 63.9962C125.387 61.3961 123.419 60.0921 119.41 57.4399C119.502 56.8046 119.548 56.4862 119.639 55.8496C123.655 58.5032 125.631 59.8085 129.559 62.4059C129.461 63.0426 129.413 63.3609 129.316 63.9962Z" fill="#BBC0E6"/>
<path fill-rule="evenodd" clip-rule="evenodd" d="M128.749 67.696C124.821 65.0892 122.867 63.7932 118.877 61.1477C118.968 60.5177 119.013 60.2021 119.104 59.5708C123.102 62.219 125.061 63.519 128.99 66.1231C128.893 66.753 128.845 67.0687 128.749 67.696Z" fill="#BBC0E6"/>
<path fill-rule="evenodd" clip-rule="evenodd" d="M128.189 71.3402C124.261 68.7321 122.321 67.4441 118.35 64.8079C118.439 64.1873 118.485 63.877 118.574 63.2524C122.552 65.8926 124.498 67.1846 128.426 69.7927C128.331 70.4133 128.283 70.7236 128.189 71.3402Z" fill="#BBC0E6"/>
<path fill-rule="evenodd" clip-rule="evenodd" d="M127.642 74.9106C123.712 72.3052 121.786 71.0279 117.834 68.4064C117.921 67.7992 117.965 67.4943 118.053 66.8804C122.014 69.5085 123.945 70.7912 127.874 73.3979C127.781 74.0051 127.734 74.3087 127.642 74.9106Z" fill="#BBC0E6"/>
<path fill-rule="evenodd" clip-rule="evenodd" d="M137.291 32.0124C127.866 25.8736 118.442 19.7334 109.018 13.5942C108.852 14.7318 108.768 15.3098 108.596 16.481C118.02 22.5929 127.441 28.7077 136.865 34.8183C137.038 33.6723 137.124 33.1102 137.291 32.0124Z" fill="#FF6D2D"/>
<path opacity="0.4" fill-rule="evenodd" clip-rule="evenodd" d="M168.495 34.7445C175.065 35.7373 173.575 46.0886 173.587 49.126C173.612 55.5673 172.851 80.32 165.735 80.2277C159.015 80.1421 137.039 68.6224 137.039 68.6224L138.613 61.4896C138.613 61.4896 156.287 67.2127 162.741 68.6705C162.198 63.5881 161.698 51.4037 161.871 45.8305C162.041 40.3147 162.62 33.8567 168.495 34.7445Z" fill="#FF6D2D"/>
<path fill-rule="evenodd" clip-rule="evenodd" d="M138.41 62.4145C137.487 61.9517 137.445 60.3547 136.805 59.1457C136.072 57.7614 134.65 57.2585 134.65 57.2585L134.366 59.1497C133.076 58.295 127.733 54.3468 127.271 55.7873C126.811 57.2277 127.041 61.8928 130.325 64.5437C133.608 67.1933 134.658 66.2089 137.282 67.5169C137.495 66.5526 138.41 62.4145 138.41 62.4145Z" fill="#F7D3C9"/>
<path fill-rule="evenodd" clip-rule="evenodd" d="M174.218 35.3867C172.539 31.5785 171.102 30.4523 169.914 30.6543C173.349 33.61 176.919 54.039 160.465 75.5363C145.019 95.7161 106.347 116.415 87.0645 104.973C93.4054 114.057 128.177 129.55 160.592 107.158C193.157 84.6632 177.304 42.3802 174.218 35.3867Z" fill="#2B2998"/>
<mask id="mask2_60_5799" style="mask-type:alpha" maskUnits="userSpaceOnUse" x="101" y="40" width="80" height="79">
<path fill-rule="evenodd" clip-rule="evenodd" d="M156.503 104.629C131.429 121.792 111.447 117.581 101.303 114.379C115.867 120.136 138.764 122.238 160.593 107.158C188.24 88.0605 180.99 54.7051 176.28 40.7847C181.023 58.216 182.227 87.0226 156.503 104.629Z" fill="white"/>
</mask>
<g mask="url(#mask2_60_5799)">
<path fill-rule="evenodd" clip-rule="evenodd" d="M156.503 104.629C131.429 121.792 111.447 117.581 101.303 114.379C115.867 120.136 138.764 122.238 160.593 107.158C188.24 88.0605 180.99 54.7051 176.28 40.7847C181.023 58.216 182.227 87.0226 156.503 104.629Z" fill="#2B2998"/>
</g>
<path fill-rule="evenodd" clip-rule="evenodd" d="M169.258 31.438C170.675 32.8212 164.159 35.2287 160.636 35.8164C157.302 36.3725 153.309 35.38 154.658 34.5668C155.7 33.9386 157 33.0185 157.488 31.9527C157.708 31.248 157.112 29.4852 156.767 28.0636C153.395 29.4199 151.711 27.8747 150.754 22.8648C149.736 23.1115 149.035 22.7674 149.035 22.7674C148.87 22.0877 149.805 20.217 149.428 18.6635C149.052 17.1102 148.614 15.726 148.488 13.0839C148.362 10.4423 150.388 5.63648 156.43 4.71081C163.504 3.62732 166.345 8.07978 167.582 14.1139C168.957 20.8134 160.267 22.6712 169.258 31.438Z" fill="#A54A31"/>
<path fill-rule="evenodd" clip-rule="evenodd" d="M147.535 10.9508C147.389 13.9676 150.107 17.6723 155.752 17.8254C162.529 18.0088 162.139 22.0853 161.22 24.8012C159.647 29.4471 162.932 38.2887 168.074 40.4273C177.125 44.1896 182.586 42.051 186.803 35.9778C192.969 27.0979 185.418 26.6421 177.183 27.8711C174.102 28.3308 171.682 22.6379 171.588 18.4867C171.506 14.9169 171.646 10.1326 170.248 7.33612C167.334 1.50044 161.446 -0.358918 155.839 0.999289C150.233 2.3575 147.792 5.64649 147.535 10.9508Z" fill="#222222"/>
<path fill-rule="evenodd" clip-rule="evenodd" d="M29.7623 176.889L25.2309 175.088C24.8765 174.948 24.4739 175.007 24.1747 175.242L20.349 178.266C20.0498 178.503 19.8993 178.882 19.9547 179.259L20.6615 184.084C20.7169 184.461 20.9686 184.78 21.3232 184.922L25.8544 186.722C26.2088 186.862 26.6116 186.805 26.9106 186.568L30.7365 183.543C31.0355 183.307 31.1857 182.929 31.1305 182.552L30.4244 177.726C30.3691 177.349 30.1166 177.03 29.7623 176.889Z" fill="#2B2998"/>
<path fill-rule="evenodd" clip-rule="evenodd" d="M230.082 123.784L232.61 130.465C232.883 131.188 233.838 131.344 234.327 130.744L238.849 125.215C239.34 124.617 238.998 123.712 238.234 123.588L231.183 122.436C230.421 122.312 229.808 123.059 230.082 123.784Z" fill="#FF6D2D"/>
</svg>
