<svg xmlns="http://www.w3.org/2000/svg" viewBox="0 0 63.72 49.74"><defs><style>.cls-1{fill:#11496d;}.cls-2{fill:#67bd4b;}.cls-3{fill:#69bd4d;}.cls-4{fill:#62bc48;}.cls-5{fill:#205072;}.cls-6{fill:#245274;}.cls-7{fill:#eff0f2;}.cls-8{fill:#eff0f3;}.cls-9{fill:#f1f2f4;}.cls-10{fill:#d8dce3;}.cls-11{fill:#d8dbe3;}.cls-12{fill:#dadee5;}.cls-13{fill:#fcfdfb;}.cls-14{fill:#416383;}</style></defs><g id="Layer_2" data-name="Layer 2"><g id="Layer_1-2" data-name="Layer 1"><path class="cls-1" d="M16,34.91c.16.68.53.42.92.15a8.36,8.36,0,0,0,2.76-2.91c.08-.14.34-.34.43-.3a2.13,2.13,0,0,1,.75.51c.6.64,1.11,1.38,1.75,2a3.05,3.05,0,0,0,2.53.58l.38,1.32A3.34,3.34,0,0,1,24.47,36c-1.59-1.18-3.36-.85-5.11-.71a5,5,0,0,0-4.21,2.77,5.42,5.42,0,0,0-.32,1.23l.19.09.31-.23c.17-.16.31-.39.51-.48a6.37,6.37,0,0,1,1-.24,4.76,4.76,0,0,1-.16.93c-.15.39-.41.74-.58,1.13a1.32,1.32,0,0,0,0,.52,1.29,1.29,0,0,0,.5-.17c.56-.54.69-.54,1.23,0a1.38,1.38,0,0,0,1.28.53c.68-.12,1,.31.94,1a6.11,6.11,0,0,1-.9,2.33,17.63,17.63,0,0,1-3.06,3.91,5.93,5.93,0,0,1-1.19.84,3.75,3.75,0,0,1-2.36.18l1.2-1.39L13.1,48c.33-.83,1.68-1.11,1.33-2.28l-.31-.28-.32,1.09-.34-.28.07-.87c-.44.12-.45.28-.69,1.05a10.32,10.32,0,0,1-1,2.1c-.12.22-.51.28-.78.41L11,48.76a8.54,8.54,0,0,0,.69-1.3,4.17,4.17,0,0,0,.25-1.4c0-.43-.31-.47-.62-.21a1.32,1.32,0,0,0-.41.48A9.52,9.52,0,0,1,8.61,49.4a.88.88,0,0,1-.58.31c-2.65,0-5.29,0-8,0,0-.24,0-.45,0-.65,0-5.51,0-11,0-16.54a9.72,9.72,0,0,1,.84-3.94c.06-.13,0-.3.09-.43.23-.47.47-.94.71-1.4l.26.11L1.65,28l.11.06,1.32-1.88a2.11,2.11,0,0,0,.34-.52,3.29,3.29,0,0,0,.09-.71c-.23,0-.56-.15-.68,0-.68.63-1.33,1.28-1.95,2-.3.34-.5.78-.86,1.14,0-1.14,0-2.28,0-3.41a1.84,1.84,0,0,1,.64-1c.82-.75,1.69-1.44,2.53-2.17a4,4,0,0,0,.48-.64l-.2-.23a11.18,11.18,0,0,0-1,.62c-.42.35-.79.78-1.22,1.13a2.5,2.5,0,0,1-.66.3l-.15-.14c.14-.26.21-.61.43-.77.9-.68,1.85-1.3,2.78-1.93.14-.1.32-.15.42-.28a3.82,3.82,0,0,0,.35-.59c-.28,0-.61-.11-.82,0a14.33,14.33,0,0,0-1.42.92L2,19.64A2.26,2.26,0,0,1,2.33,19a4.55,4.55,0,0,1,2.36-1.43,6.55,6.55,0,0,0,1.17-.48A.33.33,0,0,0,6,16.82a.34.34,0,0,0-.27-.22,4.06,4.06,0,0,0-1.82.29,24,24,0,0,0-2.51,2.34A8.38,8.38,0,0,1,.22,20.28C-.06,13.51.06,6.79,0,0H.76Q16.3,0,31.84,0c.9,0,1.08.34,1.45,1.06a7.16,7.16,0,0,0,.82,1.39,6,6,0,0,1,1.68,3.16c.15,1.78,0,3.49-1.56,4.68-.59.43-1.25.77-1.88,1.15l-.17-.08a4,4,0,0,1,.16-.86c.28-.71.07-1.09-.7-1.13-.46,0-.92,0-1.4,0a4.33,4.33,0,0,1-.07-.51c0-.95-.32-1.18-1.3-1.12-.47,0-.93,0-1.4,0a1.56,1.56,0,0,0-.45.14c.06.15.08.35.19.43.61.41,1.24.79,1.87,1.17a4.24,4.24,0,0,0,.6.23c-.7,1.29,0,2.49.12,3.73a7,7,0,0,1-.15,2,1.32,1.32,0,0,1-1.44,1.11,5.64,5.64,0,0,0-3.79,1.79,5.58,5.58,0,0,0-.46-.82,4.39,4.39,0,0,0-.68-.55l.22-.8-.14-.13a5.79,5.79,0,0,0-.67.42c-.29.25-.51.58-.81.8s-.61.17-.74-.31a2.81,2.81,0,0,0-.51-1,.91.91,0,0,0-.74-.25c-.17,0-.29.36-.41.56a.39.39,0,0,0,0,.19c0,.4.12.94-.37,1-.31.06-.69-.27-1-.45-.51-.25-1-.53-1.66-.87a12.18,12.18,0,0,0,0,1.25c.08.7-.17,1.06-.89,1.06-.55,0-.52.29-.37.61.27.56.64,1,1.38.89a2.85,2.85,0,0,1,.51,0c.57,0,.76.32.42.78s-.23.86.07,1.31a10,10,0,0,1,1.05,2c.21.58-.12.85-.76.71-.24-.06-.46-.2-.71-.26s-.49-.13-.54-.06a.84.84,0,0,0-.13.62,8.14,8.14,0,0,0,.34,1.07c-.06,0,0,0,0,0a3.69,3.69,0,0,1,2.84-.67c.81,0,1.62,0,2.43,0a2,2,0,0,1,.68.13c.28.1.54.31.7-.18a1.13,1.13,0,0,1,.78.08c.2.15.42.61.34.74a8.87,8.87,0,0,1-1.09,1.29c-.69.77-1.42,1.51-2.08,2.31-.24.3-.25.78-.49,1.08-.72.95-.94.91-1.57,0a10.65,10.65,0,0,0-2.9-3,1.61,1.61,0,0,0-1.86,0,6.68,6.68,0,0,0-2.64,3,2.15,2.15,0,0,0-.05.76,1.19,1.19,0,0,0,.2.07l1.08.08c-.16.42-.31.85-.48,1.27,0,.08-.13.13-.15.2a4.86,4.86,0,0,0-.11.55c.17-.06.39-.07.5-.19a18,18,0,0,1,1.3-1.44,11.85,11.85,0,0,1,1.62-.95c.39.29.35.6.06.92-.78.89-1.57,1.77-2.35,2.67a3.51,3.51,0,0,0-.31.62c1.12-.52,1.16-.53,1.7-.43l-.8,1.41C15.32,36.45,15.15,35.07,16,34.91ZM10,3.55c.21.15.49.25.62.44.54.89,1.08,1.78,1.53,2.72a3,3,0,0,0,1.28,1.37,1.13,1.13,0,0,0,.23,0l-.07-.38.55-.1A14.67,14.67,0,0,1,13,6.25c-.4-.6-.71-1.28-1.08-1.9A6.2,6.2,0,0,0,8,1.58a7.13,7.13,0,0,0-1.73,0L8.59,4.47V3.36l.23-.07,1.89,3.58C11.17,6,10.88,4.92,10,3.55Zm8,9.06a2.55,2.55,0,0,0-.95-1.8c-1-.68-1.59-.65-2.26.66-.35.69-.71,1.42-1.67,1.5a4.22,4.22,0,0,0-1.21.41c-.14.06-.23.26-.34.39.14.1.28.28.43.29.64,0,1.28,0,1.92,0s1.49,0,1.86-.91c.1-.24.43-.37.66-.56,0,.34.05.68.07,1,0,0,0,0,0,.06l.09.75c.29-.12.71-.15.85-.37A8,8,0,0,0,18.06,12.61Zm10.27,2,.06.12.73-.36c-.18-.22-.34-.46-.54-.67a.74.74,0,0,0-.38-.2A3.36,3.36,0,0,1,26,11.83a5.12,5.12,0,0,0-.54-.71,1.85,1.85,0,0,0-2.18-.06,3,3,0,0,0,.27,3.48c.15.13.45.09.68.13,0-.21.05-.42,0-.62s-.14-.25-.11-.36a4.44,4.44,0,0,1,.25-.66,3.45,3.45,0,0,1,.5.35c.35.32.64.83,1.05.95A14.46,14.46,0,0,0,28.33,14.63ZM9.74,7.86C9,7.24,8.16,6.65,7.42,6A5.46,5.46,0,0,0,3.53,4.54,3.38,3.38,0,0,0,1.1,5.7.57.57,0,0,0,1,6.1c0,.08.17.2.26.19.73-.06,1.59.23,1.92-.76C5.51,6,7.26,7.9,9.74,7.86ZM32.56,3.22a2,2,0,0,0-2.91-.15ZM12.17,16.43l-.1.11c.19.22.35.58.57.62.78.14,1.57.16,2.35.23l0-.24ZM33.05,5.81c-.58-.77-.95-.76-1.74,0Z"/><path class="cls-2" d="M55.93,19.63l-1-.23v-.11a2.65,2.65,0,0,1,.38-.05c1.82,0,3.63,0,5.44.11A2.3,2.3,0,0,1,63,21.06a2.71,2.71,0,0,1-1,3.05,6.55,6.55,0,0,0-.61.53,2.86,2.86,0,0,1,2.3,2.61,3.24,3.24,0,0,1-2.78,3.95c-1.6.14-3.23,0-4.94,0ZM57.45,31c.94,0,1.82,0,2.69,0a1.78,1.78,0,0,0,1.74-1.37,6.59,6.59,0,0,0,.14-2.5,2.24,2.24,0,0,0-1-1.32c-1.09-.72-2.36-.46-3.59-.52Zm0-11.55v4.87c.69,0,1.33.05,2,0,1.43-.14,1.94-.7,2-2.12a6.58,6.58,0,0,0,0-.89,1.62,1.62,0,0,0-1.5-1.64C59.13,19.53,58.32,19.51,57.48,19.44Z"/><path class="cls-3" d="M53,30.79c-.28.18-.54.48-.85.54A7.29,7.29,0,0,1,47,30.81a4.67,4.67,0,0,1-2.46-3.34A9.76,9.76,0,0,1,44.86,22a4.46,4.46,0,0,1,4.47-3,23.17,23.17,0,0,1,2.86.32c.17,0,.44.2.45.32,0,1.14,0,2.28,0,3.42l-.22,0c-.26-.89-.55-1.77-.77-2.66a1.19,1.19,0,0,0-.84-.94,3.19,3.19,0,0,0-4.38,2.29A13,13,0,0,0,46.29,28a4.3,4.3,0,0,0,1.32,2.43c1.39,1.17,2.94.91,4.49.44a6,6,0,0,0,.74-.29Z"/><path class="cls-2" d="M43.67,31.32c-.83,0-1.53,0-2.22,0a.83.83,0,0,1-.54-.35c-1.33-1.87-2.64-3.77-4-5.65-.21-.29-.13-.47.07-.71l3.34-4.05c.22-.28.42-.58.69-.95l-.87-.17v-.12h2.19c-.19.26-.36.49-.54.71-1.07,1.29-2.14,2.59-3.24,3.87a.7.7,0,0,0,0,1c1.32,1.91,2.62,3.84,4,5.73C42.72,30.88,43.16,31,43.67,31.32Z"/><path class="cls-4" d="M33.64,31.12l.92-.17V19.62l-.85-.2v-.11H36V31.25H33.65Z"/><path class="cls-5" d="M28.09,17.11c.69,0,1,.56.67.95s-.72.71-1.07,1.07a2,2,0,0,0-.77,1.79.57.57,0,0,1,0,.13c-.33,1.19-.65,2.38-1,3.56a.57.57,0,0,1-.46.32.63.63,0,0,1-.39-.42,3.37,3.37,0,0,1,0-1,1.22,1.22,0,0,0-.66-1.38c-.65-.32-.52-.91-.42-1.46s.26-1,.9-1c1.16,0,1.7-.79,2.27-1.59A8.14,8.14,0,0,1,28.09,17.11Z"/><path class="cls-6" d="M18.68,23c0-.44,0-.82,0-1.2a1.9,1.9,0,0,0-.22-.84,1.81,1.81,0,0,1,0-2c.12-.21.44-.3.67-.45.16.25.43.5.45.77a11,11,0,0,1,0,1.72c0,.51-.08,1-.08,1.52S19.21,23.14,18.68,23Z"/><path class="cls-7" d="M10,3.55c.84,1.37,1.13,2.4.67,3.32L8.82,3.29l-.23.07V4.47L6.24,1.56A7.13,7.13,0,0,1,8,1.58a6.2,6.2,0,0,1,4,2.77c.37.62.68,1.3,1.08,1.9a14.67,14.67,0,0,0,1.15,1.37l-.55.1.07.38a1.13,1.13,0,0,1-.23,0,3,3,0,0,1-1.28-1.37c-.45-.94-1-1.83-1.53-2.72C10.53,3.8,10.25,3.7,10,3.55Z"/><path class="cls-8" d="M18.06,12.61a8,8,0,0,1-.57,1.46c-.14.22-.56.25-.85.37l-.09-.75s0,0,0-.06c0-.33-.05-.67-.07-1-.23.19-.56.32-.66.56-.37.87-1.1.9-1.86.91s-1.28,0-1.92,0c-.15,0-.29-.19-.43-.29.11-.13.2-.33.34-.39A4.22,4.22,0,0,1,13.18,13c1-.08,1.32-.81,1.67-1.5.67-1.31,1.28-1.34,2.26-.66A2.55,2.55,0,0,1,18.06,12.61Z"/><path class="cls-9" d="M28.33,14.63a14.46,14.46,0,0,1-2.39-.3c-.41-.12-.7-.63-1.05-.95a3.45,3.45,0,0,0-.5-.35,4.44,4.44,0,0,0-.25.66c0,.11.1.24.11.36s0,.41,0,.62c-.23,0-.53,0-.68-.13a3,3,0,0,1-.27-3.48,1.85,1.85,0,0,1,2.18.06,5.12,5.12,0,0,1,.54.71,3.36,3.36,0,0,0,2.22,1.69.74.74,0,0,1,.38.2c.2.21.36.45.54.67l-.73.36Zm-4-2.24.78-1.25c-.37,0-.74-.06-.85.07A.8.8,0,0,0,24.28,12.39Z"/><path class="cls-9" d="M9.74,7.86C7.26,7.9,5.51,6,3.15,5.53c-.33,1-1.19.7-1.92.76C1.14,6.3,1,6.18,1,6.1a.57.57,0,0,1,.13-.4A3.38,3.38,0,0,1,3.53,4.54,5.46,5.46,0,0,1,7.42,6C8.16,6.65,9,7.24,9.74,7.86Z"/><path class="cls-10" d="M32.56,3.22l-2.91-.15A2,2,0,0,1,32.56,3.22Z"/><path class="cls-11" d="M12.17,16.43l2.86.72,0,.24c-.78-.07-1.57-.09-2.35-.23-.22,0-.38-.4-.57-.62Z"/><path class="cls-12" d="M33.05,5.81H31.31C32.1,5.05,32.47,5,33.05,5.81Z"/><path class="cls-13" d="M57.45,31V25.27c1.23.06,2.5-.2,3.59.52a2.24,2.24,0,0,1,1,1.32,6.59,6.59,0,0,1-.14,2.5A1.78,1.78,0,0,1,60.14,31C59.27,31,58.39,31,57.45,31Z"/><path class="cls-13" d="M57.48,19.44c.84.07,1.65.09,2.44.21a1.62,1.62,0,0,1,1.5,1.64,6.58,6.58,0,0,1,0,.89c0,1.42-.56,2-2,2.12-.64.06-1.28,0-2,0Z"/><path class="cls-14" d="M24.28,12.39a.8.8,0,0,1-.07-1.18c.11-.13.48-.05.85-.07Z"/></g></g></svg>