<?xml version="1.0" encoding="utf-8"?>
<!-- Generator: Adobe Illustrator 26.0.1, SVG Export Plug-In . SVG Version: 6.00 Build 0)  -->
<svg version="1.1" id="Layer_1" xmlns="http://www.w3.org/2000/svg" xmlns:xlink="http://www.w3.org/1999/xlink" x="0px" y="0px"
	 viewBox="0 0 294.4 97" style="enable-background:new 0 0 294.4 97;" xml:space="preserve">
<style type="text/css">
	.st0{fill:#FEFDFD;}
	.st1{fill:#FE030A;}
</style>
<g>
	<path class="st0" d="M166.3,17.3c-4.1-0.1-7.4,3.1-7.4,7.1c0,3.9,3,6.8,7,6.8c4.1,0,6.9-2.7,7-6.7
		C173.1,20.5,170.2,17.4,166.3,17.3z M160.8,36.7v42.1c3.8-0.1,7.2,0.7,10.3-0.4V35C167.4,35.6,164.2,36.1,160.8,36.7z M181.9,41.4
		c-0.7,0.8-1.2,1.5-1.2,2.6v34.8h11.2V49.9c0-5.9,1.4-8.1,7.3-7.7c5.2,0.3,6.6-2.1,7.6-6.4C198.4,32.7,187.3,35.3,181.9,41.4z
		 M293.9,72.4c-6-0.1-7.5-3.6-7.2-8.9c0.3-5.8,0.1-11.6,0.1-17.4V22.7c-4,0.7-7.4,1.3-11.1,2c0,14-0.2,27.4,0,40.8
		c0.2,10.8,7.2,15.8,18.2,13.2C294.5,76.7,294.5,74.6,293.9,72.4z M222,68c-0.3-8.3-0.1-16.7-0.1-24.8c2.7-0.9,4.9,0.2,6.8-0.9v-7.7
		h-6.9V22.7c-3.9,0.7-7.5,1.3-11.3,2c0,13.7-0.1,27.1,0,40.4c0.1,11,7.3,16.3,18.3,13.5v-6C225.9,71.9,222.1,71.8,222,68z
		 M266.1,68.7c-15.3,6.4-22.4,3-20.9-10.4h23.2c0.5-3.7,0.2-6.9-0.5-10.1c-1.9-8.3-6.1-12.8-13-13.5c-9.2-1-15.4,2.4-19,10.1
		c-1.8,4-2.7,8.2-2.6,12.5c0.1,8.4,2.1,16.5,10.4,20.4c8.8,4.2,17.2,2.1,25.4-3C267.9,72.4,267,70.6,266.1,68.7z M251.5,42.8
		c5.4,0,5,4.5,6,8.4H245C245.6,47,246.3,42.8,251.5,42.8z M152,48.5c-0.2-6.8-3.7-11.8-9.7-13.5c-7.9-2.2-15.3-0.3-22.5,3.7
		c1,2.3,1.9,4.2,2.8,6.1c15.2-4.6,18.4-3.7,17.8,5.7c-3.6,0-6.9-0.2-10.2,0c-7.4,0.7-12.5,5.2-13.3,11.8c-1,7.2,2.6,13.7,9.6,16
		c8.6,2.9,16.6,1.1,24-4.2c1.4-1,1.6-2.3,1.6-3.9C152,63.1,152.1,55.8,152,48.5z M137.7,71.8c-3.4,0.6-6.3,0.4-8.3-2.6
		c-3.1-4.7-0.2-10.9,5.5-11.5c1.8-0.2,3.6,0,5.9,0c0,3,0,5.8,0,8.5C140.7,68.6,141.4,71.1,137.7,71.8z M63.9,0.4
		C43.3,3.3,26.1,13.1,11.5,27.5C6.4,32.4,2,38.1,0.4,45.3C-2,56.1,7.1,64.2,17.7,60.9c4.4-1.4,8.1-3.8,11.6-6.5
		c8.7-6.6,17.8-12.7,27.2-18.3c5-3,10.1-5.6,15.9-6.8c6-1.2,10.5,1.2,12.6,6.8c1.3,3.7,1.7,7.4,0.5,11.2
		c-7.5,23.3-25.5,36.1-46.4,45.8c-1.5,0.7-3.6,1-5-0.8c-1.4-1.9-0.1-3.5,0.8-5c3.4-5.6,8.7-9.5,12.9-14.4c1.9-2.2,4.7-4.4,2.8-7.8
		c-2-3.4-5.7-3.8-9.2-3.5c-2.8,0.3-5.4,1.5-7.6,3.4C28.3,70,24.9,76,23.5,83c-1.8,9.1,4.4,15.1,13.6,13.9c3.5-0.5,6.8-1.3,10-2.8
		c15.3-7.3,28.7-17.3,39.4-30.4c7.9-9.6,13.1-20.6,13.6-32C100,10.9,83.9-2.4,63.9,0.4z"/>
	<path class="st1" d="M100.1,31.6C99.6,43,94.4,54,86.4,63.6C75.7,76.7,62.4,86.7,47,94c-3.1,1.5-6.5,2.4-10,2.8
		C27.9,98.1,21.7,92,23.5,83c1.4-6.9,4.8-13,10.2-17.7c2.2-1.9,4.8-3.1,7.6-3.4c3.5-0.3,7.2,0,9.2,3.5c1.9,3.3-0.9,5.6-2.7,7.8
		c-4.2,4.9-9.5,8.8-12.9,14.4c-0.9,1.5-2.2,3.1-0.8,5c1.4,1.8,3.5,1.5,5,0.8c21-9.7,39-22.5,46.4-45.8c1.2-3.8,0.8-7.5-0.5-11.2
		c-2.1-5.7-6.6-8.1-12.6-6.9c-5.8,1.2-10.9,3.8-15.9,6.8C47.1,41.7,38,47.8,29.3,54.4c-3.6,2.7-7.3,5.2-11.6,6.5
		C7.1,64.2-2,56.1,0.4,45.3c1.6-7.2,6-12.9,11.1-17.9C26.1,13.1,43.3,3.3,63.9,0.4C83.9-2.4,100,10.9,100.1,31.6z"/>
	<path class="st1" d="M152,48.5c-0.2-6.8-3.7-11.8-9.7-13.5c-7.9-2.2-15.3-0.3-22.5,3.7c1,2.3,1.9,4.2,2.8,6.1
		c15.2-4.6,18.4-3.7,17.8,5.7c-3.6,0-6.9-0.2-10.2,0c-7.4,0.7-12.5,5.2-13.3,11.8c-1,7.2,2.6,13.7,9.6,16c8.6,2.9,16.6,1.1,24-4.2
		c1.4-1,1.6-2.3,1.6-3.9C152,63.1,152.1,55.8,152,48.5z M137.7,71.8c-3.4,0.6-6.3,0.4-8.3-2.6c-3.1-4.7-0.2-10.9,5.5-11.5
		c1.8-0.2,3.6,0,5.9,0c0,3,0,5.8,0,8.5C140.7,68.6,141.4,71.1,137.7,71.8z"/>
	<path class="st1" d="M266.1,68.7c-15.3,6.4-22.4,3-20.9-10.4h23.2c0.5-3.7,0.2-6.9-0.5-10.1c-1.9-8.3-6.1-12.8-13-13.5
		c-9.2-1-15.4,2.4-19,10.1c-1.8,4-2.7,8.2-2.6,12.5c0.1,8.4,2.1,16.5,10.4,20.4c8.8,4.2,17.2,2.1,25.4-3
		C267.9,72.4,267,70.6,266.1,68.7z M251.5,42.8c5.4,0,5,4.5,6,8.4H245C245.6,47,246.3,42.8,251.5,42.8z"/>
	<path class="st1" d="M228.8,72.6c0,2.2,0,4.1,0,6c-11,2.8-18.2-2.5-18.3-13.5c-0.1-13.4,0-26.7,0-40.4c3.9-0.7,7.4-1.3,11.3-2
		c0,4.1,0,7.9,0,11.9c2.4,0,4.5,0,6.9,0c0,2.7,0,5.1,0,7.7c-1.8,1-4.1,0-6.8,0.9c0,8.1-0.2,16.4,0.1,24.8
		C222.1,71.8,225.9,71.9,228.8,72.6z"/>
	<path class="st1" d="M275.7,24.7c3.7-0.7,7.1-1.3,11.1-2c0,8,0,15.7,0,23.4c0,5.8,0.2,11.6-0.1,17.4c-0.3,5.3,1.2,8.8,7.2,8.9
		c0.6,2.3,0.6,4.3,0,6.3c-11,2.6-18-2.4-18.2-13.2C275.5,52.1,275.7,38.7,275.7,24.7z"/>
	<path class="st1" d="M206.8,35.7c-1,4.3-2.5,6.7-7.6,6.4c-6-0.4-7.3,1.8-7.3,7.7c0,9.5,0,19.1,0,28.8c-3.9,0-7.3,0-11.2,0
		c0-11.7,0-23.3,0-34.8c0-1.1,0.6-1.8,1.3-2.6C187.3,35.3,198.4,32.7,206.8,35.7z"/>
	<path class="st1" d="M160.8,36.7c3.4-0.6,6.6-1.1,10.3-1.7c0,14.5,0,28.8,0,43.4c-3.1,1.1-6.5,0.3-10.3,0.4
		C160.8,64.9,160.8,51.1,160.8,36.7z"/>
	<path class="st1" d="M173,24.4c-0.1,4-2.9,6.7-7,6.7c-4,0-7-2.9-7-6.8c0-4,3.3-7.2,7.4-7.1C170.2,17.4,173.1,20.5,173,24.4z"/>
</g>
</svg>
