<?xml version="1.0" encoding="utf-8"?>
<!-- Generator: Adobe Illustrator 26.0.1, SVG Export Plug-In . SVG Version: 6.00 Build 0)  -->
<svg version="1.1" id="Layer_1" xmlns="http://www.w3.org/2000/svg" xmlns:xlink="http://www.w3.org/1999/xlink" x="0px" y="0px"
	 viewBox="0 0 642.6 225.5" style="enable-background:new 0 0 642.6 225.5;" xml:space="preserve">
<style type="text/css">
	.st0{fill:#8D4822;}
	.st1{fill:#F68E33;}
	.st2{fill:#AA5014;}
</style>
<g>
	<path class="st0" d="M470.3,119.4c5.9-0.9,11.9-0.8,17.9-0.3c28.2,2.6,58.9-21.1,64-52.8c0.9-5.8,0.6-11.5,0.3-17.3
		c-0.9-17.2,5.6-31.3,20-40.9c14.2-9.5,29.7-10.9,44.9-2.8c18.9,10,27.8,27.3,24.5,48.5c-2.9,18.5-17.7,33.2-37.6,37
		c-4.1,0.8-8.3,0.6-12.4,0.2c-32.1-2.7-62.7,21.9-67,53.9c-0.6,4.8-0.7,9.5-0.2,14.4c2.5,22-11.6,46.9-40.3,50.3
		c-24.3,2.9-45.8-14.9-49.4-37.9c-1-6.1-0.3-11.9,0.4-17.8c1.1-2.9,2-5.9,3.3-8.8C445,131.5,456,123.5,470.3,119.4z"/>
	<path class="st1" d="M470.3,119.4c-14.3,4-25.3,12-31.6,25.8c-1.3,2.8-2.2,5.8-3.3,8.8c0.3-30.1-22.2-55-47.8-61.2
		c-6.5-1.6-13.2-2.3-19.8-1.4c-19.8,2.8-45-9.2-49.1-37.7C314.5,24.5,335,6.3,354.6,2.3c30.2-6.1,57.4,19.8,52.9,50.3
		c-1.9,12.8,1.8,25.1,8.7,36.1C428.7,108.6,446.7,119,470.3,119.4z"/>
	<path class="st1" d="M525,45.6c-1.7-24.5-24.7-42.8-46.7-41.5c-24.9,0.7-44.7,21.4-43.7,46.8c1,26.1,22.6,45.7,47.8,44.3
		C507.7,93.6,526.9,71.5,525,45.6z M471.7,56.3c-10.3-0.2-18.6-8.7-18.5-19.3c0.1-10.3,8.2-17.7,19.2-17.7
		c10.6,0,17.4,7.4,17.8,18.4C490.7,48.5,480.4,56.5,471.7,56.3z"/>
	<path class="st2" d="M23.3,183.8c8.4,0,15.9,0,23.4,0c7.3,0,14.6,0,22.5,0c-1.6,6-3.1,11.4-4.5,16.8c-21.6,0-42.8,0-64.7,0
		c7.7-28.8,15.3-57.3,22.9-86c21.2,0,42.2,0,63.7,0c-0.6,5.3-2.4,10.3-3.8,15.3c-0.7,2.3-2.8,1.3-4.3,1.3c-12.3,0.1-24.6,0.1-36.9,0
		c-3.1,0-4.8,0.6-5.4,4c-0.8,4.4-2.2,8.7-3.5,13.5c13.2,0,26,0,39.6,0c-1.4,5.5-2.7,10.4-4,15.2c-0.6,2.2-2.6,1.7-4.2,1.7
		c-10.6,0-21.3,0.2-31.9-0.1c-3.4-0.1-4.7,1.1-5.4,4.2C25.9,174.3,24.6,178.7,23.3,183.8z"/>
	<path class="st2" d="M147.4,134.5c-9.5,0-9.5,0-13,8.9c-6.5-8.5-14.7-11.3-24.6-9.7c-23.7,3.8-38.8,31.6-29.2,53.6
		c6,13.8,22.4,18.8,35.1,10.8c1.6-1,3.1-2,5.5-3.5c-2.8,10.8-5.3,20.5-8,30.7c5.2,0,9.6-0.2,14.1,0.1c3.4,0.2,4.9-0.8,5.8-4.3
		c4.7-18.7,9.7-37.2,14.6-55.8c2.7-10.1,5.3-20.1,8.2-30.8H147.4z M115.5,185.4c-10.2,3.1-18.5-3.1-18.1-13.8
		c0.4-10.9,6.9-19.8,16.1-22c9.2-2.1,17.1,4,17.2,13.5C130.7,173.3,124.4,182.6,115.5,185.4z"/>
	<path class="st2" d="M225.1,134.5c-4.1,15.7-8,30.5-12,45.4c-1.5,5.8-3.3,11.5-4.6,17.3c-0.6,2.9-1.9,3.7-4.8,3.6
		c-4.6-0.2-9.3-0.1-13.7-0.1c-1.4-1.6,0.1-3.2-1-4.7c-0.5,0.1-1.2,0.1-1.7,0.5c-3.4,2.4-7,4.5-11.2,5.2
		c-14.1,2.4-25.1-8.4-22.2-22.7c2.9-14.1,7-28,10.5-42c0.5-2.1,1.6-2.6,3.5-2.6c5,0.1,9.9,0,15.1,0c0.4,3.8-1.2,7-2.1,10.3
		c-2.2,9-4.8,17.9-7.1,26.9c-1.7,6.6-0.5,10.2,3.6,12.2c4.7,2.2,10.7,0.8,14.4-3.5c2.2-2.6,3.6-5.6,4.4-8.8
		c2.9-11.1,6-22.1,8.8-33.2c0.7-3,1.9-4.1,5-3.9C215,134.8,219.6,134.5,225.1,134.5z"/>
	<path class="st1" d="M342,133.9c-20.1-3.6-40.1,10.4-44.4,31.5c-3,14.5,2.4,27.6,13.8,33.4c12.6,6.4,32.2,3.7,41-5.9
		c-2.7-3.6-5.4-7.3-8.1-10.9c-16.2,8.6-29,5.2-28.8-7.3c1.5-0.9,3.2-0.5,4.8-0.5c11.8,0,23.6,0,35.4,0c1.7,0,3.6,0.6,4.6-1.9
		C366.7,155.9,361.1,137.4,342,133.9z M345.1,159.5c-0.3,1.9-1.1,2.9-3.2,2.9c-8.3-0.1-16.5,0-25.3,0c3.9-10.3,12.6-15.5,21.5-13.3
		C342.8,150.1,345.8,154.7,345.1,159.5z"/>
	<path class="st1" d="M263.6,151.2c-2.6-0.2-4.7-0.4-7.4-0.6c1.3-4.9,2.5-9.5,3.7-14.1c0.7-2.5,2.7-2.2,4.5-2c3.2,0.4,4.3-1.2,5-4
		c1.1-4.1,0.8-9.6,3.9-12c3.3-2.6,8.7-0.6,13.1-0.8c1.5-0.1,3,0,5.1,0c-1.5,5.7-2.8,10.9-4.3,16.8c5.2,0,10,0,15.3,0
		c-1.4,5.1-2.7,9.5-3.7,14c-0.6,2.5-2.2,2.4-4.1,2.5c-4,0.2-9-1.7-11.6,0.8c-2.5,2.4-2.5,7.3-3.6,11.2c-1.4,5-2.8,9.9-3.9,14.9
		c-1.4,5.9,0.3,7.8,6.3,7.1c2.3-0.2,4.5-0.9,7.5-1.5c-1.3,4.9-2.6,9.4-3.7,14c-0.4,1.5-1.4,2.2-2.7,2.6c-6.5,2.2-13,2.8-19.6,0.6
		c-6.4-2.2-9.8-8-8.3-15.1c2.3-10.4,5.1-20.6,7.8-30.9C263,153.7,263.3,152.8,263.6,151.2z"/>
	<path class="st1" d="M359.8,200.9c1.6-6,3-11.4,4.4-16.8c6-22.8,12.2-45.5,18-68.3c1.1-4.2,3-5.6,7.1-5.3c4.1,0.3,8.3,0.1,12.1,0.1
		c1.1,1.6,0.3,2.6,0,3.7c-7.3,27.4-14.7,54.8-21.8,82.2c-0.9,3.4-2.2,4.6-5.7,4.4C369.5,200.6,365.1,200.9,359.8,200.9z"/>
	<path class="st2" d="M237,200.7c-6.3,0-12.1,0-18.3,0c0.5-5.3,2.3-10,3.6-14.9c4.1-15.7,8.4-31.4,12.4-47.2
		c0.8-3.1,2.1-4.4,5.4-4.1c4.6,0.3,9.2,0.1,14.5,0.1C248.7,156.9,242.9,178.6,237,200.7z"/>
	<path class="st2" d="M257.1,127.4c-5.3,0-10.2,0-15.2,0c-1.3,0-2.6-0.1-4.3-0.2c1.5-5.5,2.9-10.7,4.4-16.1c6.5,0,12.7,0,19.6,0
		C260,116.4,258.6,121.8,257.1,127.4z"/>
	<path class="st1" d="M472.4,19.3c10.6,0,17.4,7.4,17.8,18.4c0.4,10.8-9.9,18.8-18.6,18.6c-10.3-0.2-18.6-8.7-18.5-19.3
		C453.3,26.7,461.4,19.3,472.4,19.3z"/>
</g>
</svg>
