<svg width="617" height="238" viewBox="0 0 617 238" fill="none" xmlns="http://www.w3.org/2000/svg">
<g clip-path="url(#clip0_85_2401)">
<path fill-rule="evenodd" clip-rule="evenodd" d="M51.7677 4.63488C46.1643 4.63488 41.6218 9.09636 41.6218 14.5999V223.077C41.6218 228.58 46.1643 233.042 51.7677 233.042H151.15C156.753 233.042 161.296 228.58 161.296 223.077V14.5999C161.296 9.09636 156.753 4.63488 151.15 4.63488H51.7677ZM36.9028 14.5999C36.9028 6.53659 43.5581 0 51.7677 0H151.15C159.36 0 166.015 6.53659 166.015 14.5999V223.077C166.015 231.14 159.36 237.677 151.15 237.677H51.7677C43.5581 237.677 36.9028 231.14 36.9028 223.077V14.5999Z" fill="#263470"/>
<path d="M109.009 23.2207H93.6254C88.8299 23.2207 84.9424 27.0389 84.9424 31.7489V206.16C84.9424 210.87 88.8299 214.688 93.6254 214.688H109.009C113.805 214.688 117.692 210.87 117.692 206.16V31.7489C117.692 27.0389 113.805 23.2207 109.009 23.2207Z" fill="#263470"/>
<path d="M105.894 41.9922C93.6537 38.2848 80.698 37.4515 68.0697 39.5596C55.4415 41.6677 43.4935 46.6581 33.1875 54.1293C22.8814 61.6005 14.5051 71.3438 8.73271 82.5749C2.96034 93.806 -0.046875 106.211 -0.046875 118.792C-0.046875 131.373 2.96034 143.778 8.73271 155.01C14.5051 166.241 22.8814 175.984 33.1875 183.455C43.4935 190.926 55.4415 195.917 68.0697 198.025C80.698 200.133 93.6537 199.3 105.894 195.592V41.9922Z" fill="#21C463"/>
<path d="M83.1013 151.515V161.758H73.6633V151.793C65.3782 151.537 57.3331 149 50.4458 144.47L55.5895 133.3C60.9423 136.96 67.1692 139.195 73.6633 139.788V124.493C63.3287 122.037 51.7671 118.653 51.7671 105.537C51.7671 95.8497 58.94 87.5069 73.6633 85.8384V75.688H83.1013V85.653C89.7542 86.0418 96.2205 87.9631 101.977 91.2612L97.2583 102.524C92.8892 100.094 88.0813 98.5195 83.1013 97.8891V113.462C93.4359 115.826 104.809 119.209 104.809 132.002C104.809 141.55 97.7302 149.753 83.1013 151.515ZM73.6633 111.052V98.0281C68.9443 99.1405 66.7736 101.782 66.7736 104.795C66.7736 107.808 69.6521 109.754 73.7577 111.052H73.6633ZM89.7079 133.114C89.7079 129.916 87.0181 128.155 83.0069 126.764V139.418C87.726 138.398 89.8023 136.034 89.8023 133.114H89.7079Z" fill="white"/>
<path d="M219.151 51.2617V202.173H187.156V51.2617H219.151Z" fill="#263470"/>
<path d="M276.345 69.0135C276.355 71.4255 275.841 73.8117 274.835 76.0122C273.81 78.1789 272.367 80.1304 270.588 81.7595C268.798 83.4433 266.701 84.7799 264.406 85.6991C262.014 86.6731 259.445 87.1618 256.856 87.1359C254.357 87.1663 251.88 86.6766 249.588 85.6991C247.349 84.7554 245.302 83.4206 243.548 81.7595C241.806 80.1288 240.411 78.1755 239.442 76.0122C238.452 73.8087 237.953 71.4222 237.98 69.0135C237.953 66.5599 238.451 64.1282 239.442 61.8758C240.42 59.6767 241.813 57.6794 243.548 55.9895C245.292 54.3273 247.342 53.006 249.588 52.0962C251.905 51.1599 254.399 50.7176 256.903 50.7985C259.492 50.7725 262.061 51.2612 264.453 52.2353C266.753 53.123 268.854 54.4458 270.635 56.1286C272.412 57.8136 273.852 59.81 274.882 62.0149C275.853 64.2247 276.351 66.6068 276.345 69.0135Z" fill="#21C463"/>
<path d="M273.089 97.6567H241.283V202.22H273.089V97.6567Z" fill="#263470"/>
<path d="M325.234 110.542C329.327 106.226 334.109 102.594 339.391 99.789C345.235 96.8868 351.721 95.4535 358.267 95.6176C363.625 95.569 368.911 96.8271 373.651 99.2792C378.504 101.783 382.69 105.371 385.873 109.754C389.571 114.823 392.305 120.508 393.943 126.532C395.98 133.871 396.965 141.452 396.869 149.058C396.938 156.448 395.807 163.802 393.518 170.842C391.462 177.132 388.264 183.004 384.08 188.176C380.251 192.957 375.423 196.876 369.923 199.671C364.124 202.455 357.737 203.853 351.283 203.749C346.455 203.898 341.644 203.111 337.126 201.432C333.389 199.907 329.93 197.793 326.886 195.175V235.313H295.08V97.657H314.758C316.473 97.505 318.189 97.9447 319.61 98.9006C321.031 99.8564 322.069 101.269 322.544 102.894L325.234 110.542ZM327.169 173.762C329.311 176.128 331.974 177.982 334.955 179.185C337.764 180.275 340.76 180.826 343.78 180.807C346.582 180.843 349.357 180.257 351.896 179.092C354.481 177.844 356.692 175.96 358.314 173.623C360.333 170.632 361.772 167.301 362.561 163.797C363.688 158.964 364.211 154.015 364.119 149.058C364.19 144.394 363.779 139.735 362.892 135.153C362.278 131.896 361.114 128.763 359.447 125.883C358.186 123.77 356.358 122.038 354.162 120.878C352.009 119.877 349.653 119.37 347.272 119.395C343.293 119.237 339.341 120.1 335.805 121.897C332.491 123.813 329.563 126.311 327.169 129.267V173.762Z" fill="#263470"/>
<path d="M411.026 112.164C417.269 106.697 424.527 102.463 432.403 99.6965C440.508 96.9484 449.028 95.5693 457.602 95.6178C463.558 95.5221 469.474 96.5772 475.015 98.7232C479.968 100.616 484.444 103.542 488.134 107.298C491.781 111.026 494.594 115.462 496.392 120.322C498.363 125.621 499.338 131.227 499.271 136.868V202.174H484.736C482.39 202.322 480.042 201.908 477.894 200.969C476.041 199.782 474.672 197.994 474.024 195.917L471.759 190.169C469.116 192.394 466.521 194.341 464.067 196.056C461.66 197.708 459.1 199.135 456.422 200.32C453.728 201.497 450.912 202.383 448.023 202.962C444.753 203.543 441.435 203.823 438.113 203.796C433.622 203.854 429.148 203.229 424.852 201.942C421.133 200.812 417.693 198.934 414.754 196.426C411.938 193.954 409.742 190.877 408.336 187.435C406.76 183.464 405.991 179.228 406.071 174.967C406.145 170.987 407.128 167.075 408.949 163.519C411.295 159.219 414.723 155.58 418.906 152.951C424.705 149.274 431.083 146.565 437.782 144.933C447.678 142.519 457.835 141.29 468.031 141.271V136.636C468.463 131.906 467.101 127.186 464.209 123.381C462.786 121.973 461.072 120.881 459.184 120.178C457.296 119.474 455.276 119.176 453.261 119.302C450.068 119.178 446.877 119.585 443.823 120.507C441.618 121.225 439.486 122.141 437.452 123.242C435.564 124.215 433.724 125.142 431.931 125.93C429.927 126.799 427.749 127.211 425.56 127.135C423.598 127.186 421.668 126.636 420.039 125.559C418.578 124.514 417.33 123.209 416.358 121.712L411.026 112.164ZM468.267 159.626C463.012 159.796 457.776 160.338 452.6 161.248C449.226 161.836 445.942 162.848 442.832 164.26C440.808 165.157 439.088 166.605 437.877 168.432C436.929 169.934 436.437 171.67 436.461 173.437C436.309 174.831 436.499 176.241 437.017 177.547C437.534 178.854 438.363 180.019 439.434 180.946C442.025 182.586 445.09 183.351 448.164 183.124C451.877 183.201 455.563 182.489 458.971 181.039C462.508 179.324 465.705 177.001 468.409 174.179L468.267 159.626Z" fill="#263470"/>
<path d="M615.972 51.2617V202.173H596.294C594.576 202.31 592.861 201.865 591.436 200.912C590.011 199.959 588.961 198.556 588.46 196.936L586.006 188.964C583.941 191.143 581.717 193.173 579.353 195.036C577.005 196.831 574.474 198.384 571.802 199.671C569.021 201.005 566.092 202.016 563.072 202.683C559.757 203.409 556.37 203.766 552.973 203.749C547.607 203.793 542.311 202.552 537.542 200.134C532.722 197.602 528.557 194.019 525.367 189.659C521.678 184.568 518.945 178.87 517.298 172.835C515.251 165.467 514.266 157.853 514.372 150.216C514.301 142.845 515.416 135.509 517.675 128.479C519.717 122.183 522.916 116.308 527.113 111.144C531.036 106.356 535.96 102.452 541.553 99.6962C547.338 96.9142 553.706 95.5014 560.146 95.5712C564.896 95.4422 569.626 96.2296 574.067 97.8886C577.806 99.4377 581.277 101.549 584.355 104.146V51.2617H615.972ZM584.166 125.652C582.036 123.295 579.368 121.469 576.38 120.321C573.563 119.264 570.571 118.73 567.555 118.746C564.754 118.719 561.981 119.304 559.438 120.46C556.842 121.712 554.628 123.615 553.021 125.976C550.972 128.951 549.53 132.288 548.774 135.802C547.651 140.588 547.128 145.491 547.216 150.402C547.145 155.066 547.556 159.724 548.443 164.306C549.026 167.572 550.193 170.71 551.888 173.576C553.135 175.7 554.967 177.435 557.173 178.582C559.316 179.61 561.679 180.119 564.063 180.065C566.174 180.104 568.282 179.886 570.339 179.416C572.143 179.017 573.887 178.394 575.53 177.562C577.159 176.747 578.667 175.718 580.013 174.503C581.503 173.168 582.89 171.727 584.166 170.193V125.652Z" fill="#263470"/>
<path d="M288.885 82.4593H294.15V71.4177H299.5C306.193 71.4177 310.712 68.2203 310.712 61.5058C310.712 55.7292 307.536 51.4661 300.118 51.4661H288.885V82.4593ZM294.15 66.643V56.1769H299.351C303.145 56.1769 305.255 58.1592 305.255 61.4206C305.255 64.4901 303.316 66.6643 298.988 66.6643L294.15 66.643Z" fill="#21C463"/>
<path d="M330.664 82.8004C339.617 82.8004 346.288 76.4269 346.288 66.9627C346.288 57.4984 339.617 51.125 330.664 51.125C321.349 51.125 314.975 57.8608 314.975 66.9627C314.975 76.0859 321.349 82.8004 330.664 82.8004ZM330.664 77.8764C324.61 77.8764 320.454 73.0377 320.454 66.9627C320.454 60.8877 324.61 56.0276 330.664 56.0276C336.398 56.0276 340.81 60.5892 340.81 66.9414C340.81 73.2935 336.398 77.8764 330.664 77.8764Z" fill="#21C463"/>
<path d="M384.678 51.4661L377.985 73.9117H377.942L371.889 51.4661H366.283L360.186 73.8477H360.144L353.514 51.4661H347.866L357.692 82.4593H362.616L369.096 59.1611H369.16L375.512 82.4593H380.436L390.263 51.4661H384.678Z" fill="#21C463"/>
<path d="M395.464 82.4593H415.885V77.7485H400.729V69.4566H412.261V64.7245H400.729V56.1769H414.989V51.4661H395.485L395.464 82.4593Z" fill="#21C463"/>
<path d="M445.151 82.4593L437.222 70.9274V70.8422C441.421 69.6911 444.022 66.6003 444.022 61.5058C444.022 55.7292 440.782 51.4447 433.449 51.4447H422.002V82.4593H427.246V71.3964H431.424L438.821 82.4593H445.151ZM427.246 56.1769H432.639C436.433 56.1769 438.565 58.1379 438.565 61.3992C438.565 64.4901 436.519 66.6643 432.277 66.6643H427.246V56.1769Z" fill="#21C463"/>
<path d="M450.544 82.4593H470.965V77.7485H455.809V69.4566H467.341V64.7245H455.809V56.1769H470.07V51.4661H450.566L450.544 82.4593Z" fill="#21C463"/>
<path d="M477.061 82.4593H487.058C497.013 82.4593 503.024 76.1498 503.024 67.0053C503.024 57.8395 496.757 51.4661 486.931 51.4661H477.061V82.4593ZM482.326 77.7485V56.1769H487.037C493.24 56.1769 497.588 60.7171 497.588 67.0053C497.588 73.1443 493.304 77.7272 486.739 77.7272L482.326 77.7485Z" fill="#21C463"/>
<path d="M537.215 66.0887V66.0248C540.369 64.7672 541.755 61.8895 541.755 59.0332C541.755 53.96 538.067 51.4661 531.673 51.4661H520.887V82.4593H533.143C540.007 82.4593 543.311 78.8996 543.311 73.9543C543.311 69.6911 540.796 66.984 537.215 66.0887ZM526.152 56.1769H530.649C534.721 56.1769 536.383 57.7756 536.383 60.1842C536.383 63.1258 533.804 64.2982 531.182 64.2982H526.152V56.1769ZM531.609 77.7272H526.152V68.8598H531.694C535.723 68.8598 537.812 70.6077 537.812 73.3788C537.812 76.299 535.275 77.7059 531.587 77.7272H531.609Z" fill="#21C463"/>
<path d="M565.65 51.4661L558.744 63.4882H558.616L551.688 51.4661H545.677L556.015 68.7745V82.4593H561.302V68.7745L571.725 51.4661H565.65Z" fill="#21C463"/>
</g>
<defs>
<clipPath id="clip0_85_2401">
<rect width="616.019" height="237.677" fill="white"/>
</clipPath>
</defs>
</svg>
