<?xml version="1.0" encoding="utf-8"?>
<!-- Generator: Adobe Illustrator 26.0.1, SVG Export Plug-In . SVG Version: 6.00 Build 0)  -->
<svg version="1.1" id="Layer_1" xmlns="http://www.w3.org/2000/svg" xmlns:xlink="http://www.w3.org/1999/xlink" x="0px" y="0px"
	 viewBox="0 0 75.6 27.7" style="enable-background:new 0 0 75.6 27.7;" xml:space="preserve">
<style type="text/css">
	.st0{fill:#D7E2D1;}
	.st1{fill:#3AB54A;}
	.st2{fill:#EC1E25;}
	.st3{fill:#9E4E45;}
	.st4{fill:#FEFEFE;}
</style>
<g>
	<path class="st0" d="M27.3,11.5c0,4.6,0,9.3,0,13.9c0,1.1-0.9,2.2-2.2,2.2c-2.3,0-4.7,0-7,0c-1.3,0-2.2-0.9-2.2-2.2
		c0-4.1,0-8.3,0-12.4c0-0.1,0-0.3,0-0.4c0,0,0.1,0,0.1,0c0.4,0.1,0.8,0.2,1.2,0.2c0,0.7,0,1.3,0,2c0,0.1,0,0.2,0,0.3
		c0.2,1.1,1.1,1.8,2.2,1.8c1.4,0,2.7,0,4.1,0c0.3,0,0.5,0,0.8-0.1c0.9-0.2,1.7-1.1,1.7-2c0-0.9,0-1.8,0-2.7
		C26.4,12.1,26.8,11.8,27.3,11.5z"/>
	<path class="st1" d="M2.8,17.3c-1,0-1.9,0-2.8,0c0-4,0-8,0-12.1c0.1-0.1,0.2,0,0.3,0c0.9,0,1.8,0,2.7,0c0.3,0,0.4,0.1,0.5,0.3
		C4.7,7.7,5.7,9.8,6.8,12c0,0.1,0.1,0.2,0.1,0.2c0.1-0.1,0.2-0.2,0.2-0.3c1.1-2.1,2.1-4.3,3.1-6.4c0.1-0.2,0.3-0.3,0.5-0.3
		c1,0,2,0,3.1,0c0,4.1,0,8.1,0,12.1c-0.9,0-1.8,0-2.8,0c0-2.5,0-5,0-7.5c0,0-0.1,0-0.1,0c-0.1,0.1-0.1,0.2-0.2,0.3
		C9.9,12,9,13.9,8.1,15.8c-0.1,0.2-0.2,0.3-0.5,0.3c-0.5,0-1,0-1.4,0c-0.2,0-0.3-0.1-0.4-0.3C4.9,14,4,12.1,3,10.2
		C3,10,2.9,9.9,2.8,9.8C2.8,12.3,2.8,14.8,2.8,17.3z"/>
	<path class="st1" d="M49.4,12.5c-1.9,0-3.8,0-5.7,0c0,0.8,0,1.5,0,2.3c2.2,0,4.3,0,6.5,0c0,0.9,0,1.7,0,2.5c-3.2,0-6.5,0-9.7,0
		c0-4,0-8,0-12.1c3.2,0,6.3,0,9.5,0c0,0.8,0,1.6,0,2.5c-2.1,0-4.2,0-6.4,0c0,0.8,0,1.5,0,2.3c1.9,0,3.8,0,5.7,0
		C49.4,10.8,49.4,11.6,49.4,12.5z"/>
	<path class="st1" d="M75.5,17.3c-1,0-2.1,0-3.1,0c-0.2,0-0.2-0.1-0.3-0.2c-0.2-0.6-0.4-1.1-0.6-1.7c-0.1-0.2-0.2-0.3-0.4-0.3
		c-1.6,0-3.1,0-4.7,0c-0.2,0-0.3,0.1-0.4,0.3c-0.2,0.6-0.4,1.1-0.6,1.7c-0.1,0.1-0.1,0.2-0.3,0.2c-1,0-2,0-3,0c0-0.1,0-0.2,0.1-0.3
		c1.6-3.8,3.3-7.7,4.9-11.5c0.1-0.2,0.2-0.3,0.5-0.3c0.9,0,1.8,0,2.7,0c0.2,0,0.3,0.1,0.4,0.2c1.6,3.9,3.3,7.8,4.9,11.7
		C75.5,17.2,75.6,17.2,75.5,17.3z M70.5,12.8c-0.5-1.4-1.1-2.8-1.6-4.3c-0.6,1.5-1.1,2.9-1.7,4.3C68.3,12.8,69.3,12.8,70.5,12.8z"/>
	<path class="st1" d="M51.3,15.5c0.4-0.8,0.8-1.6,1.2-2.4c0.2,0.1,0.3,0.2,0.4,0.3c1.1,0.8,2.4,1.4,3.8,1.5c0.4,0,0.8,0,1.1-0.2
		c0.7-0.3,0.8-1.1,0.2-1.6c-0.3-0.3-0.8-0.4-1.2-0.6c-0.9-0.3-1.9-0.5-2.8-0.9c-1-0.5-1.8-1.1-2-2.3c-0.3-1.6,0.4-3.1,1.9-3.8
		c1-0.5,2-0.7,3.1-0.6c1.7,0,3.2,0.5,4.7,1.4C61.4,7.2,61,8,60.6,8.8c-0.1-0.1-0.2-0.1-0.3-0.2c-1-0.5-2.1-0.9-3.2-1.1
		c-0.3,0-0.7,0-1,0c-0.3,0.1-0.6,0.2-0.7,0.6c-0.1,0.4,0,0.7,0.3,0.9c0.2,0.2,0.5,0.3,0.8,0.4c1,0.4,2,0.6,3,1
		c1,0.4,1.8,1.1,2.1,2.2c0.5,2-0.5,3.7-2.4,4.4C56.8,18,53.2,17.3,51.3,15.5z"/>
	<path class="st1" d="M29.1,5.2c0.1,0,0.1,0,0.2,0c1.8,0,3.5,0,5.3,0c0.5,0,1.1,0.1,1.6,0.2c1.9,0.5,2.9,1.8,3,3.8
		c0,0.6,0,1.3-0.2,1.9c-0.5,1.6-1.7,2.4-3.3,2.8C35.1,14,34.4,14,33.7,14c-0.5,0-1,0-1.5,0c0,1.1,0,2.2,0,3.3c-1.1,0-2.1,0-3.1,0
		C29.1,13.3,29.1,9.3,29.1,5.2z M32.3,7.7c0,1.3,0,2.5,0,3.7c0.8,0,1.7,0.1,2.5-0.1c1-0.1,1.5-0.8,1.5-1.8c0-1-0.5-1.7-1.4-1.8
		C34,7.7,33.1,7.8,32.3,7.7z"/>
	<path class="st0" d="M15.8,12.3c0-2.6,0-5.2,0-7.8c0-1.2,0.9-2.2,2.2-2.2c2.3,0,4.6,0,6.9,0c0.1,0,0.2,0,0.4,0c0-0.5,0-0.9,0-1.3
		c0-0.5,0.2-0.8,0.6-0.9c0.4-0.2,0.9,0,1.2,0.3c0.1,0.1,0.2,0.2,0.2,0.4c0,2.8,0,5.5,0,8.3c-0.4-0.2-0.9-0.4-1.3-0.6
		c0-0.4,0-0.8,0-1.2c0-1.1-1-2.1-2.1-2.1c-1.6,0-3.1,0-4.7,0c-1,0-2,1-2,2c0,1.5,0,3,0,4.5C16.7,12,16.3,12.2,15.8,12.3z"/>
	<path class="st2" d="M25.9,8.5c0.4,0.2,0.9,0.4,1.3,0.6c0.5,0.3,1,0.5,1.6,0.8c-0.4,0.7-1,1.2-1.5,1.7c-0.4,0.3-0.9,0.5-1.3,0.8
		c-1.7,0.8-3.5,1-5.3,1c-1.2,0-2.3-0.1-3.5-0.3c-0.4-0.1-0.8-0.2-1.2-0.2c0.1-0.1,0.2,0,0.3,0c0.9,0,1.8-0.1,2.6-0.5
		c0.5-0.2,1.1-0.5,1.4-0.9c0.1,0,0.2-0.1,0.3-0.2c1.2-1,2.1-2.2,2.9-3.5c0-0.1,0.1-0.2,0.2-0.3C24.4,7.7,25.2,8.1,25.9,8.5z"/>
	<path class="st3" d="M20.3,11.3c-0.4,0.4-0.9,0.7-1.4,0.9c-0.8,0.4-1.7,0.5-2.6,0.5c-0.1,0-0.2,0-0.3,0c0,0-0.1,0-0.1,0
		c-0.3-0.1-0.5-0.2-0.9-0.3c0.3,0,0.6,0,0.9-0.1c0.5-0.1,0.9-0.3,1.3-0.6c0.7-0.5,1.3-1.1,1.8-1.8C19.3,10.5,19.7,11,20.3,11.3z"/>
	<path class="st4" d="M17.1,13c1.2,0.2,2.3,0.3,3.5,0.3c1.8,0,3.6-0.2,5.3-1c0,0.9,0,1.8,0,2.7c0,0.9-0.8,1.8-1.7,2
		c-0.3,0-0.5,0.1-0.8,0.1c-1.4,0-2.7,0-4.1,0c-1.1,0-2-0.8-2.2-1.8c0-0.1,0-0.2,0-0.3C17.1,14.3,17.1,13.6,17.1,13z"/>
	<path class="st4" d="M70.5,12.8c-1.1,0-2.2,0-3.3,0c0.6-1.4,1.1-2.8,1.7-4.3C69.4,9.9,69.9,11.3,70.5,12.8z"/>
	<path class="st4" d="M32.3,7.7c0.9,0,1.7-0.1,2.6,0c0.9,0.1,1.5,0.8,1.4,1.8c0,1-0.6,1.7-1.5,1.8c-0.8,0.1-1.6,0-2.5,0.1
		C32.3,10.2,32.3,9,32.3,7.7z"/>
	<path class="st4" d="M20.3,11.3c-0.6-0.3-1-0.8-1.4-1.4c-0.5,0.7-1.1,1.3-1.8,1.8c0-1.5,0-3,0-4.5c0-1,1-2,2-2c1.6,0,3.1,0,4.7,0
		c1.1,0,2.1,1,2.1,2.1c0,0.4,0,0.8,0,1.2c-0.8-0.4-1.5-0.7-2.3-1.1c-0.1,0.1-0.1,0.2-0.2,0.3c-0.8,1.3-1.7,2.5-2.9,3.5
		C20.5,11.2,20.4,11.3,20.3,11.3z"/>
</g>
</svg>
