<svg width="118" height="180" viewBox="0 0 118 180" fill="none" xmlns="http://www.w3.org/2000/svg">
<g clip-path="url(#clip0_58_4247)">
<path d="M91.7245 110.44C91.5653 109.389 90.6133 106.559 92.4552 99.7349C94.3027 92.8928 91.833 95.8857 91.7291 93.3969C91.5326 88.6713 89.8476 87.8904 86.8663 80.0932C83.292 70.7544 85.0345 70.0973 81.7257 62.2179C79.5213 56.9713 77.6805 52.5833 73.1057 48.7746C68.1672 44.6611 62.7963 43.5089 60.7296 43.0904C58.8256 42.7044 55.3553 42.7798 48.4913 42.9475C45.1881 43.0285 39.9086 43.1973 33.3315 44.3292C28.1367 45.2225 26.1774 46.0169 25.5393 47.6528C24.995 49.0559 25.3903 51.1667 26.5117 52.5022C27.2548 53.3529 28.1506 54.058 29.1531 54.5815C29.1531 54.5815 26.6189 57.8096 27.2051 59.9822C28.4044 64.4333 34.4326 64.2274 35.1305 64.5571C37.362 65.6181 38.4225 69.1443 37.6331 69.8239C36.9081 70.4461 35.1836 68.1868 31.6534 68.1587C30.742 68.1519 29.0797 68.1384 28.0396 69.2658C26.9013 70.5035 27.1813 72.351 27.344 73.4289C27.8307 76.657 30.1164 78.6462 30.6799 79.1109C32.5049 80.6152 33.6094 80.4149 35.6861 81.4737C36.4281 81.8495 41.8025 87.7104 41.8025 87.7104C41.8025 87.7104 45.2615 99.5537 50.0023 106.973C50.1876 107.261 49.9865 106.937 58.4834 116.951C63.5134 122.879 65.0097 123.728 65.2954 125.821C65.8601 129.964 73.3824 157.643 79.5089 179.509H117.964C112.995 167.775 107.123 153.902 106.731 153.13C104.726 149.164 92.3818 114.784 91.7245 110.44Z" fill="#875343"/>
<path d="M73.1056 48.7745C72.8617 48.5709 72.6166 48.3773 72.3716 48.1883C71.6273 48.0758 70.9836 48.024 70.5545 47.9903C64.9656 47.5515 53.8927 45.9425 38.6945 43.5696C37.0265 43.7575 34.4404 64.2296 35.1338 64.5592C37.3653 65.6202 38.4258 69.1465 37.6364 69.8261C36.9114 70.4483 33.6093 80.4114 35.6849 81.4646C36.428 81.8404 41.8024 87.7013 41.8024 87.7013C41.8024 87.7013 41.7787 87.9691 42.8492 90.9699C57.319 90.9699 73.0412 92.8252 73.0412 92.8252C73.0412 92.8252 83.4139 82.6336 84.2959 77.3499C85.5618 69.7552 79.9515 68.2362 79.6657 57.5383C78.1028 54.2832 76.2507 51.3939 73.1056 48.7745Z" fill="#9C6E60"/>
<path d="M72.1345 4.57875C71.8985 1.67024 69.5371 0.393195 67.8736 0.528213L31.5371 3.38047C30.7383 3.44473 29.9979 3.82244 29.4786 4.43053C28.9594 5.03863 28.7038 5.82731 28.768 6.62315L35.4468 89.0606C35.4787 89.4546 35.5882 89.8385 35.7691 90.1903C35.9499 90.5421 36.1985 90.855 36.5008 91.1111C36.803 91.3672 37.1529 91.5615 37.5305 91.6828C37.9081 91.8041 38.306 91.8502 38.7014 91.8183L75.929 88.8254C76.7278 88.7609 77.4682 88.3829 77.9875 87.7747C78.5067 87.1664 78.7623 86.3776 78.698 85.5816L72.1345 4.57875Z" fill="#719CBF"/>
<path d="M70.4867 3.26786C70.4219 2.47246 70.0429 1.73521 69.4328 1.21812C68.8227 0.701019 68.0316 0.446369 67.2332 0.510118L30.0068 3.50302C29.6113 3.53483 29.226 3.64394 28.8729 3.82413C28.5198 4.00431 28.2057 4.25203 27.9487 4.55315C27.6916 4.85427 27.4967 5.20288 27.3749 5.57908C27.2531 5.95528 27.2069 6.35169 27.2388 6.74569L33.9187 89.1831C33.9832 89.979 34.3623 90.7167 34.9726 91.234C35.583 91.7514 36.3746 92.0061 37.1733 91.942L74.4009 88.948C74.7963 88.9162 75.1816 88.807 75.5348 88.6269C75.8879 88.4467 76.202 88.199 76.459 87.8978C76.716 87.5967 76.911 87.2481 77.0328 86.8719C77.1546 86.4957 77.2008 86.0993 77.1688 85.7053L70.4867 3.26786Z" fill="#222222"/>
<path d="M77.8195 81.8842C77.6287 82.0676 77.352 82.3343 77.0053 82.6842L76.4327 83.258L75.7687 83.941L74.1956 85.5837L72.3582 87.5313C71.7055 88.221 71.0313 88.9513 70.3255 89.7107C69.9867 90.0899 69.605 90.4984 69.2594 90.9484C68.9035 91.401 68.575 91.8745 68.2758 92.3661C67.9751 92.8626 67.6999 93.3741 67.4514 93.8985C67.2075 94.4161 66.9613 94.9494 66.7602 95.4996C66.3459 96.5937 66.08 97.7379 65.9697 98.9021C65.9381 99.1845 65.9291 99.4849 65.9155 99.7741V100.347V100.4L65.9257 100.611C65.9511 101.165 66.0145 101.717 66.1154 102.262C66.3033 103.288 66.617 104.287 67.0493 105.237C67.4377 106.071 67.8908 106.874 68.4045 107.639C69.1668 108.778 70.0851 109.805 71.1329 110.69C71.5101 111.008 71.8207 111.238 72.0364 111.392L72.3661 111.624L72.4791 111.476L72.1753 111.217C71.981 111.046 71.6976 110.792 71.3588 110.448C70.4272 109.506 69.6255 108.444 68.9748 107.291C68.5465 106.525 68.1784 105.727 67.8737 104.904C67.5433 103.998 67.3208 103.058 67.2108 102.101C67.1524 101.6 67.1298 101.096 67.1431 100.592V100.401V100.354C67.1431 100.366 67.1431 100.328 67.1431 100.318L67.1499 100.216L67.1736 99.8112C67.2018 99.5614 67.221 99.3173 67.265 99.0585C67.4226 98.0243 67.7184 97.0158 68.1448 96.06C68.5757 95.1002 69.1056 94.1877 69.7258 93.3371C70.3435 92.5011 71.0234 91.79 71.7586 91.0261C72.4937 90.2621 73.1352 89.4722 73.7303 88.7127C74.3255 87.9533 75.3881 87.8903 75.8704 87.1994C77.8049 84.4372 79.6366 82.7326 79.6366 82.7326L78.1075 81.6074C78.1075 81.6074 78.0126 81.7031 77.8195 81.8842Z" fill="#9C6E60"/>
<path d="M91.8747 73.8597C90.6935 69.4131 89.353 65.4549 88.8177 63.8819C86.6257 57.4415 81.8702 43.5167 79.9221 44.3426C76.0272 46.0044 77.4501 54.5375 77.5506 55.288C79.0458 65.924 81.8928 76.4554 81.021 79.122C80.7432 79.9704 80.3852 80.3665 78.794 82.1689C72.1661 89.6838 71.4275 90.6998 71.0018 91.3119C69.0819 94.091 67.6929 96.0938 67.388 99.0754C66.8403 104.349 70.1254 108.329 70.7228 109.052C71.3823 109.851 75.7155 115.1 81.0131 114.32C85.2231 113.701 87.554 109.641 89.6376 106.01C94.8561 96.9174 94.5229 87.8453 94.3716 85.7807C94.122 82.3197 93.3722 79.5001 91.8747 73.8597Z" fill="#9C6E60"/>
<path d="M91.7242 110.44C91.565 109.389 90.613 106.559 92.4549 99.7349C94.7135 93.0627 94.4876 87.3582 94.3747 85.7763C94.1228 82.3198 93.373 79.5002 91.8755 73.8598C90.6943 69.4132 89.3538 65.4549 88.8185 63.882C86.7699 57.8512 82.4639 45.2551 80.3329 44.3584C80.4933 45.0537 80.6717 45.8076 80.8625 46.6087C82.7824 54.6288 84.2335 59.1744 87.6903 71.4261C90.3555 80.8774 90.9021 83.1693 91.0658 86.7709C91.2657 91.1353 90.7733 94.5637 90.3995 97.0818C89.609 102.38 88.9416 106.598 86.1082 111.083C84.8345 113.088 83.3114 114.923 81.5751 116.547C77.3967 120.425 74.0088 122.144 74.0088 122.144C74.0088 122.144 81.9964 119.598 85.076 116.476C85.4904 116.055 98.1759 151.693 107.756 179.5H118.011C113.174 167.994 107.184 153.992 106.743 153.121C104.726 149.164 92.3815 114.784 91.7242 110.44Z" fill="#543125"/>
<path d="M80.1842 45.9818C79.6805 46.3678 79.702 47.5289 79.7449 47.7562C80.1492 49.9052 81.859 54.7693 82.8098 55.7009C83.6004 56.4705 84.2124 56.7945 85.2706 56.6696C85.593 56.6274 85.9095 56.5482 86.2136 56.4334C84.6054 52.0261 82.7794 47.4738 81.3745 45.426C80.9092 45.5757 80.4767 45.7568 80.1842 45.9818Z" fill="#F9EDF0"/>
<path d="M68.9387 10.442L30.1899 13.5305L35.5756 80.6029L74.3243 77.5144L68.9387 10.442Z" fill="url(#paint0_linear_58_4247)"/>
<path d="M53.0626 6.29011L44.786 6.95507C44.6487 6.97212 44.5234 7.04131 44.4362 7.14821C44.3489 7.2551 44.3065 7.39144 44.3177 7.52877C44.3289 7.6661 44.3929 7.7938 44.4964 7.88523C44.5998 7.97666 44.7347 8.02475 44.8729 8.01946L53.1485 7.35225C53.2209 7.34969 53.292 7.33255 53.3576 7.30184C53.4232 7.27114 53.4819 7.22751 53.5301 7.17359C53.5783 7.11968 53.615 7.05659 53.638 6.98814C53.6611 6.9197 53.67 6.8473 53.6642 6.77534C53.6584 6.70337 53.638 6.63332 53.6043 6.56942C53.5706 6.50552 53.5242 6.44908 53.468 6.40352C53.4118 6.35797 53.3469 6.32423 53.2772 6.30435C53.2075 6.28447 53.1345 6.27886 53.0626 6.28786V6.29011Z" fill="#719CBF"/>
<path opacity="0.1" d="M35.4634 80.3259L74.0856 77.2092L68.6525 10.3562L35.4634 80.3259Z" fill="#3737BC"/>
<path d="M56.6382 6.03357C56.5308 5.94269 56.3988 5.88558 56.2588 5.86945C56.1189 5.85332 55.9773 5.87889 55.8519 5.94293C55.7265 6.00697 55.623 6.10661 55.5544 6.22926C55.4858 6.3519 55.4553 6.49204 55.4667 6.63197C55.478 6.77189 55.5308 6.90532 55.6182 7.01538C55.7057 7.12545 55.8239 7.20722 55.958 7.25035C56.0921 7.29348 56.236 7.29603 56.3716 7.2577C56.5071 7.21936 56.6282 7.14184 56.7196 7.03495C56.8419 6.89134 56.902 6.70524 56.8868 6.5175C56.8715 6.32976 56.7821 6.15572 56.6382 6.03357Z" fill="#719CBF"/>
<path d="M40.8345 113.876L40.7825 113.948L40.6696 113.87L40.6527 113.895V113.902C40.6376 113.921 40.628 113.944 40.625 113.968C40.622 113.992 40.6257 114.017 40.6357 114.039L40.6685 114.11L40.7453 114.117H40.7712C40.7908 114.114 40.8097 114.108 40.8266 114.098C40.8435 114.088 40.8581 114.074 40.8695 114.058L40.8921 114.027L40.7791 113.949L40.8345 113.876Z" fill="#D8735B"/>
<path d="M64.3728 53.6267L41.1326 55.4937C39.9179 55.5913 39.0125 56.6515 39.1105 57.8618L39.7035 65.1898C39.8015 66.4001 40.8656 67.3021 42.0804 67.2045L65.3206 65.3375C66.5354 65.2399 67.4407 64.1796 67.3428 62.9693L66.7497 55.6414C66.6518 54.4311 65.5876 53.5291 64.3728 53.6267Z" fill="#FF5C5C"/>
<path d="M34.2227 157.368C35.0606 154.62 35.5236 153.161 36.6992 151.379C38.68 148.382 40.1707 148.272 43.5315 145.152C44.9996 143.786 48.6958 140.294 51.0708 134.975C51.6783 133.614 52.2949 131.639 53.5293 127.688C54.5163 124.529 54.6868 123.665 55.5044 121.124C56.4847 118.079 57.3452 115.889 58.3164 113.43C60.7783 107.197 61.8602 105.514 63.0843 101.009C63.3012 100.21 64.3266 98.9642 63.8477 97.8199C63.3689 96.6756 61.7156 96.1322 60.4655 96.1547C58.7647 96.1805 57.4514 97.2213 56.1526 98.531C53.8657 100.85 51.9982 103.545 50.6326 106.498C46.5084 115.775 45.5936 120.465 44.627 120.348C43.6253 120.226 43.4288 115.052 43.4706 112.406C43.5135 109.609 43.8602 107.223 45.0369 101.575C46.549 94.3151 46.6574 94.989 47.2865 91.4369C47.9392 87.7453 48.1651 84.5499 48.6157 78.1601C48.8521 75.2423 48.8109 72.3087 48.4926 69.3986C48.1097 65.9939 47.4954 64.1554 46.0081 62.9853C45.8071 62.8277 44.1459 61.5529 42.8957 62.1223C41.7755 62.6308 41.5699 64.3501 41.4276 65.6676C41.0019 69.6371 40.5298 73.601 40.112 77.5717C39.8477 80.0853 39.7167 78.6496 38.1425 86.0261C38.1425 86.0261 36.8585 92.0377 34.0905 99.8474C33.7352 100.894 33.1093 101.83 32.2757 102.559C31.8342 102.935 30.7986 103.815 29.5948 103.671C28.4926 103.539 28.4271 102.687 27.1814 102.127C25.6298 101.428 23.6806 101.827 22.4384 102.529C20.846 103.422 19.0877 106.269 19.0877 106.269C19.0877 106.269 17.6196 104.409 15.4796 104.925C12.444 105.658 12.0104 108.616 12.0104 108.616C12.0104 108.616 10.592 107.664 9.3723 107.947C6.68568 108.573 5.96857 110.83 5.46377 112.702C5.04367 114.258 5.18371 115.499 5.28083 116.499C5.59816 119.761 5.45135 123.058 5.65576 126.331C6.17185 134.612 6.26332 135.491 6.40674 136.594C6.87089 140.185 7.11482 140.297 7.22775 142.324C7.46942 146.637 6.57501 149.887 6.0815 151.808C4.24638 158.946 5.62978 156.718 2.97817 168.369C1.94825 172.886 0.986079 176.531 0.132324 179.5H18.304L30.6439 177.074C31.5473 170.793 32.5976 162.703 34.2227 157.368Z" fill="#FFBAA6"/>
<path d="M36.6989 151.379C38.6797 148.382 40.1703 148.272 43.5312 145.152C44.9992 143.786 48.6955 140.294 51.0704 134.975C51.678 133.614 52.2946 131.639 53.5289 127.688C54.5159 124.529 54.6864 123.665 55.504 121.124C56.4843 118.079 57.3448 115.889 58.316 113.43C60.7779 107.197 61.8598 105.514 63.0839 101.009C63.3008 100.21 64.3262 98.9642 63.8474 97.8199C63.3685 96.6756 61.7152 96.1322 60.4651 96.1547C58.7644 96.1805 57.451 97.2213 56.1523 98.531C53.8654 100.85 51.9979 103.545 50.6322 106.498C46.508 115.775 45.5933 120.465 44.6266 120.348C43.6249 120.226 43.4284 115.052 43.4702 112.406C43.5131 109.609 43.8598 107.223 45.0365 101.575C46.5487 94.3151 46.6571 94.989 47.2861 91.4369C47.9388 87.7453 48.1647 84.5499 48.6153 78.1601C48.8517 75.2423 48.8105 72.3087 48.4922 69.3986C48.1094 65.9939 47.495 64.1554 46.0077 62.9853C45.8067 62.8277 44.1455 61.5529 42.8954 62.1223C41.7751 62.6308 41.5695 64.3501 41.4273 65.6676C41.0015 69.6371 40.5295 73.601 40.1116 77.5717C39.8474 80.0853 39.7164 78.6496 38.1421 86.0261C38.1421 86.0261 36.8581 92.0377 34.0902 99.8474C33.7348 100.894 33.1089 101.83 32.2754 102.559C31.8338 102.935 30.7982 103.815 29.5944 103.671C28.4922 103.539 28.4267 102.687 27.1811 102.127C25.6294 101.428 23.6802 101.827 22.438 102.529C20.8457 103.422 19.0873 106.269 19.0873 106.269C19.0873 106.269 17.6192 104.409 15.4792 104.925C12.4436 105.658 12.01 108.616 12.01 108.616C12.01 108.616 10.5916 107.664 9.37193 107.947C6.68531 108.573 5.9682 110.83 5.4634 112.702C5.0433 114.258 5.18333 115.499 5.28045 116.499C5.59779 119.761 5.45098 123.058 5.65538 126.331C6.17148 134.612 6.26295 135.491 6.40637 136.594C6.87051 140.185 7.11444 140.297 7.22737 142.324C7.46905 146.637 6.57464 149.887 6.08113 151.808C4.24601 158.946 5.62941 156.718 2.9778 168.369C2.66498 169.739 1.67232 174.077 0.419922 179.5H29.9569C31.9411 168.633 33.8044 158.739 34.2223 157.368C35.0602 154.62 35.5232 153.161 36.6989 151.379Z" fill="#875343"/>
<path d="M36.699 151.379C38.6798 148.382 40.1705 148.271 43.5313 145.151C44.9994 143.786 48.6956 140.294 51.0705 134.974C51.6781 133.614 52.2947 131.638 53.529 127.688C54.5161 124.529 54.6866 123.664 55.5042 121.124C56.4844 118.079 57.345 115.889 58.3162 113.43C60.778 107.197 61.8599 105.514 63.0841 101.008C63.3009 100.21 64.3263 98.9641 63.8475 97.8198C63.3958 96.7363 61.9277 96.2075 60.7159 96.158C61.2979 97.276 61.6074 98.5148 61.6194 99.7742C61.6194 100.423 61.5324 101.262 60.6087 103.952C59.5708 106.971 58.5646 109.159 58.4946 109.309C55.1744 116.478 55.2094 115.947 54.4133 117.94C53.1372 121.13 53.6228 121.033 51.66 127.321C50.3726 131.433 49.7289 133.489 48.7634 135.31C47.6284 137.455 45.8927 140.737 42.3839 143.298C39.7775 145.211 32.4212 147.461 30.987 150.739C30.1965 152.532 29.5765 156.387 28.8944 160.313C28.4314 162.975 27.6092 165.72 27.1925 168.39C27.1406 168.719 26.3015 173.354 25.188 179.489H30.4957C32.4438 168.605 33.7876 158.764 34.2157 157.357C35.0604 154.62 35.5234 153.161 36.699 151.379Z" fill="#875343"/>
<path d="M55.6803 112.069C55.0634 111.741 54.4834 111.348 53.9502 110.897C53.7056 110.692 53.4719 110.474 53.25 110.245C53.4519 110.494 53.6668 110.732 53.8937 110.958C54.9026 111.975 56.1209 112.762 57.4646 113.265C57.7401 113.368 58.1173 113.466 58.2822 113.516L58.4889 112.996C58.3285 112.963 57.8768 112.913 57.6046 112.837C56.9374 112.65 56.2923 112.393 55.6803 112.069Z" fill="#753E2D"/>
<path d="M57.9459 110.738C57.7012 110.581 57.4483 110.437 57.1881 110.307C56.7033 110.064 56.1932 109.876 55.667 109.744C55.4304 109.685 55.1906 109.639 54.9487 109.607C55.184 109.665 55.4156 109.738 55.6421 109.824C56.1369 110.01 56.6096 110.249 57.0515 110.539C57.2864 110.692 57.5126 110.858 57.7291 111.036C57.9357 111.205 58.1198 111.373 58.2711 111.522C58.4225 111.67 58.5444 111.8 58.628 111.891C58.7116 111.982 58.8414 112.116 58.8414 112.116L59.091 111.504C58.9916 111.417 58.7522 111.321 58.5693 111.183C58.3863 111.046 58.1808 110.89 57.9459 110.738Z" fill="#753E2D"/>
<path d="M57.1134 114.184C56.5428 114.078 55.9864 113.906 55.4556 113.672C54.9192 113.435 54.4167 113.128 53.9616 112.758C53.7523 112.59 53.5553 112.407 53.3721 112.21C53.5353 112.426 53.7138 112.63 53.9062 112.82C54.3314 113.245 54.8115 113.611 55.3337 113.909C55.8611 114.211 56.4225 114.45 57.0062 114.62C57.2456 114.693 57.4477 114.74 57.5911 114.772C57.7346 114.805 57.7617 114.84 57.7617 114.84L57.9762 114.292C57.9762 114.292 57.8136 114.283 57.6758 114.268C57.5381 114.254 57.345 114.227 57.1134 114.184Z" fill="#753E2D"/>
<path d="M42.9013 62.1211C41.7822 62.6296 41.5767 64.3489 41.4332 65.6664C41.3135 66.7871 41.1904 67.9073 41.064 69.0272C41.2059 69.2628 41.4077 69.4568 41.6489 69.5898C42.3661 69.9802 43.1938 69.6787 43.3339 69.6247C43.9697 69.3805 44.4406 68.8641 44.9668 67.7727C45.1058 67.4846 45.8014 64.6223 45.8703 62.8738C45.3971 62.5317 43.9934 61.6249 42.9013 62.1211Z" fill="#F9EDF0"/>
<path d="M58.9022 97.5891C57.8859 98.1854 57.5075 99.1317 57.0637 100.244C56.7622 100.997 56.4042 101.932 56.5646 103.127C56.6289 103.604 56.7453 104.477 57.4477 105.241C58.2303 106.091 59.2354 106.254 59.5934 106.308C60.1722 106.391 60.7623 106.348 61.3223 106.18C62.0207 104.497 62.6077 102.77 63.0795 101.011C63.2557 100.36 63.9717 99.413 63.9694 98.4645C63.4089 97.9223 62.7279 97.5195 61.9818 97.2887C61.6792 97.2009 60.2314 96.8015 58.9022 97.5891Z" fill="#F9EDF0"/>
<path d="M63.4975 100.055C63.4241 100.208 63.3507 100.356 63.2852 100.495C63.3507 100.356 63.4241 100.208 63.4975 100.055Z" fill="#F9AB98"/>
<path d="M63.573 99.8958C63.5572 99.9295 63.5402 99.9644 63.5244 99.9993C63.5402 99.9644 63.5572 99.9306 63.573 99.8958Z" fill="#F9AB98"/>
<path d="M63.1292 100.865C63.1122 100.914 63.0964 100.962 63.084 101.008C63.0964 100.965 63.1122 100.914 63.1292 100.865Z" fill="#F9AB98"/>
<path d="M63.0842 101.009C63.0164 101.255 62.9509 101.49 62.8843 101.721C62.9509 101.49 63.0164 101.255 63.0842 101.009Z" fill="#F9AB98"/>
<path d="M63.6565 99.7124C63.6418 99.745 63.6271 99.7788 63.6113 99.8114L63.6565 99.7124Z" fill="#F9AB98"/>
<path d="M63.1891 100.711C63.1744 100.747 63.1609 100.781 63.1484 100.816C63.1609 100.781 63.1744 100.747 63.1891 100.711Z" fill="#F9AB98"/>
<path d="M63.2637 100.543L63.2129 100.655L63.2637 100.543Z" fill="#F9AB98"/>
<path d="M63.7324 99.5232C63.72 99.5547 63.7064 99.5862 63.6929 99.6188C63.7098 99.5862 63.7234 99.5547 63.7324 99.5232Z" fill="#F9AB98"/>
<path d="M63.9346 98.8616C63.9346 98.8919 63.9233 98.9223 63.9165 98.9527C63.9233 98.9223 63.9289 98.8919 63.9346 98.8616Z" fill="#F9AB98"/>
<path d="M63.964 98.6614C63.964 98.692 63.956 98.7215 63.9526 98.751C63.9583 98.7215 63.9583 98.692 63.964 98.6614Z" fill="#F9AB98"/>
<path d="M63.8896 99.062C63.8816 99.0915 63.8748 99.1222 63.8657 99.1517C63.8748 99.1222 63.8816 99.0915 63.8896 99.062Z" fill="#F9AB98"/>
<path d="M63.8284 99.269C63.8149 99.3096 63.8013 99.3489 63.7866 99.3883C63.8013 99.3489 63.8149 99.3096 63.8284 99.269Z" fill="#F9AB98"/>
<path d="M62.225 103.811C62.1595 104 62.094 104.186 62.0273 104.374C62.094 104.186 62.1595 104.003 62.225 103.811Z" fill="#F9AB98"/>
<path d="M60.7158 96.158C60.8747 96.4732 61.015 96.7974 61.1359 97.129C61.4236 97.1554 61.7083 97.2081 61.9863 97.2865C62.7308 97.5168 63.4106 97.9184 63.9705 98.4589C63.9732 98.2397 63.9314 98.0223 63.8474 97.8198C63.3934 96.7363 61.9253 96.2075 60.7158 96.158Z" fill="#F9AB98"/>
<path d="M63.9717 98.5291C63.9717 98.5076 63.9717 98.4849 63.9717 98.4622C63.9706 98.4826 63.9717 98.5064 63.9717 98.5291Z" fill="#F9AB98"/>
<path d="M62.6528 102.501C62.5903 102.704 62.5278 102.901 62.4653 103.093C62.5286 102.901 62.5911 102.704 62.6528 102.501Z" fill="#F9AB98"/>
<path d="M62.4392 103.174C62.376 103.366 62.3128 103.554 62.2495 103.737C62.3128 103.555 62.376 103.367 62.4392 103.174Z" fill="#F9AB98"/>
<path d="M62.8675 101.781C62.8042 102 62.741 102.211 62.6777 102.418C62.741 102.211 62.8042 102 62.8675 101.781Z" fill="#F9AB98"/>
<path d="M63.8654 99.1509C63.8541 99.1903 63.8405 99.2296 63.8281 99.2634C63.8451 99.2296 63.8541 99.1903 63.8654 99.1509Z" fill="white"/>
<path d="M63.7866 99.3894C63.7708 99.4344 63.7539 99.4794 63.7358 99.5244C63.7539 99.4787 63.7708 99.4337 63.7866 99.3894Z" fill="white"/>
<path d="M62.0103 104.414L62.0272 104.37L62.0103 104.414Z" fill="white"/>
<path d="M63.958 98.7502C63.9524 98.7874 63.9467 98.8245 63.9399 98.8628C63.9411 98.8268 63.9467 98.7874 63.958 98.7502Z" fill="white"/>
<path d="M63.9718 98.5286C63.9718 98.5736 63.9718 98.6175 63.9639 98.6613C63.9684 98.6175 63.9695 98.5736 63.9718 98.5286Z" fill="white"/>
<path d="M63.9163 98.9529C63.9084 98.99 63.8993 99.026 63.8892 99.0654C63.8993 99.026 63.9084 98.99 63.9163 98.9529Z" fill="white"/>
<path d="M63.2127 100.656L63.189 100.711L63.2127 100.656Z" fill="white"/>
<path d="M62.8842 101.721L62.8672 101.782L62.8842 101.721Z" fill="white"/>
<path d="M62.6779 102.418C62.6699 102.447 62.6608 102.474 62.6528 102.502C62.6608 102.474 62.6699 102.447 62.6779 102.418Z" fill="white"/>
<path d="M63.1486 100.816C63.1418 100.833 63.135 100.85 63.1294 100.866C63.135 100.852 63.1418 100.833 63.1486 100.816Z" fill="white"/>
<path d="M63.2807 100.495C63.274 100.511 63.2672 100.527 63.2593 100.543C63.2717 100.527 63.2807 100.514 63.2807 100.495Z" fill="white"/>
<path d="M63.5247 99.9993L63.4976 100.056L63.5247 99.9993Z" fill="white"/>
<path d="M63.6119 99.8113C63.5994 99.8397 63.5869 99.8681 63.5732 99.8964C63.5869 99.8681 63.5994 99.8397 63.6119 99.8113Z" fill="white"/>
<path d="M62.2496 103.741C62.2405 103.765 62.2326 103.789 62.2246 103.812C62.2326 103.789 62.2405 103.765 62.2496 103.741Z" fill="white"/>
<path d="M62.4656 103.093C62.4565 103.121 62.4485 103.148 62.4395 103.175C62.4485 103.148 62.4565 103.121 62.4656 103.093Z" fill="white"/>
<path d="M63.6963 99.6145C63.6827 99.6449 63.6703 99.6764 63.6567 99.7079C63.6703 99.6809 63.6827 99.6494 63.6963 99.6145Z" fill="white"/>
<path d="M62.5409 97.4766C62.4167 97.4417 62.5624 98.2642 60.611 103.951C60.3117 104.82 60.0158 105.618 59.7437 106.321C60.2751 106.378 60.8125 106.328 61.3247 106.176C63.0028 102.97 64.3038 98.8819 63.9718 98.4611C63.5917 98.0114 63.0976 97.6715 62.5409 97.4766Z" fill="#F4E4E9"/>
<path d="M40.533 88.7725C40.3613 88.723 40.1942 88.6701 40.0236 88.6128C39.8531 88.5554 39.6995 88.5003 39.5403 88.435C39.3811 88.3697 39.2376 88.3112 39.0954 88.2482C38.9531 88.1852 38.8266 88.1222 38.708 88.0626C38.4697 87.9433 38.2766 87.8375 38.1433 87.7565C38.0101 87.6755 37.7921 87.5574 37.7921 87.5574L37.6792 88.0986L37.9051 88.2111C38.0519 88.2809 38.2642 88.3754 38.5228 88.4766C38.6527 88.5273 38.7938 88.579 38.944 88.6308C39.0942 88.6825 39.258 88.7354 39.4195 88.7815C39.581 88.8277 39.7583 88.8772 39.9344 88.9188C40.1106 88.9604 40.2913 88.9998 40.4708 89.0313C41.1302 89.1546 41.7989 89.2208 42.4697 89.2293C43.0163 89.2293 43.3732 89.2068 43.3732 89.2068C43.3732 89.2068 43.0095 89.2068 42.4697 89.1461C41.8145 89.0773 41.1666 88.9523 40.533 88.7725Z" fill="#753E2D"/>
<path d="M41.495 85.0257C40.9097 84.8295 40.3032 84.703 39.6881 84.6488C39.4352 84.6263 39.2228 84.6195 39.0738 84.6173C38.9247 84.615 38.4481 84.6724 38.4481 84.6724L38.3081 85.3092C38.3081 85.3092 38.9529 85.1427 39.093 85.1281C39.233 85.1134 39.4318 85.1011 39.6712 85.0977C40.2626 85.0903 40.8528 85.1526 41.4295 85.2833C42.0124 85.4159 42.5776 85.6164 43.1133 85.8808C43.36 86.0002 43.5995 86.1339 43.8304 86.2813C43.6138 86.1107 43.3876 85.9526 43.1528 85.8077C42.633 85.483 42.0765 85.2206 41.495 85.0257Z" fill="#753E2D"/>
<path d="M40.7498 86.7044C40.2562 86.566 39.7716 86.3977 39.2986 86.2004C39.1055 86.1194 38.9474 86.0485 38.8367 85.9967C38.726 85.945 38.2156 85.7166 38.2156 85.7166L38.0801 86.3399C38.0801 86.3399 38.5318 86.431 38.6447 86.4715C38.7577 86.512 38.9372 86.566 39.145 86.6257C40.1571 86.9138 41.2009 87.0766 42.2529 87.1106C42.6797 87.1241 42.9632 87.1106 42.9632 87.1106C42.9632 87.1106 42.6797 87.087 42.2608 87.024C41.751 86.9484 41.2464 86.8417 40.7498 86.7044Z" fill="#753E2D"/>
<path d="M60.4655 96.1544C58.7648 96.1803 57.4514 97.2211 56.1527 98.5308C53.8658 100.85 51.9983 103.545 50.6327 106.498C46.5084 115.775 45.5937 120.464 44.627 120.347C43.6253 120.226 43.4288 115.051 43.4706 112.406C43.5135 109.609 43.8602 107.223 45.0369 101.574C46.5491 94.3148 46.6575 94.9888 47.2865 91.4367C47.9393 87.7451 48.1651 84.5496 48.6157 78.1599C48.8521 75.2421 48.8109 72.3085 48.4926 69.3984C48.1098 65.9937 47.4954 64.1552 46.0081 62.985C45.7584 62.7932 45.4941 62.621 45.2176 62.4697C45.6897 63.0874 45.902 63.9324 46.269 64.8022C46.6575 65.7225 46.8969 66.6767 47.0923 68.5073C47.333 70.7951 47.3738 73.0994 47.2142 75.3943C46.8596 81.0201 46.6823 83.8329 46.4181 85.9865C45.9404 89.8885 45.1036 93.1323 44.7061 95.081C43.8771 99.1383 43.3701 99.3859 42.5818 103.189C41.5361 108.232 41.2605 110.65 41.3633 113.811C41.5338 119.088 42.304 129.094 43.1883 129.021C43.3904 129.004 45.4209 123.235 46.1934 121.203C47.3351 118.194 49.7699 111.23 50.4847 109.595C51.4389 107.422 52.5481 105.32 53.8038 103.305C54.6609 101.924 58.208 98.0042 58.8947 97.5879C60.5389 96.5887 61.9946 97.1153 63.8636 97.8759C63.8568 97.8579 63.8523 97.8388 63.8444 97.8208C63.3588 96.6608 61.7157 96.1353 60.4655 96.1544Z" fill="#753E2D"/>
<path d="M23.7209 149.329C24.6323 149.077 5.49505 154.267 6.89426 113.226C6.9191 112.527 6.81746 111.212 7.49279 109.798C7.77551 109.213 8.14688 108.675 8.59386 108.203C6.54643 109.05 5.92079 111.028 5.46907 112.703C5.04897 114.259 5.189 115.5 5.28613 116.499C5.60346 119.762 5.45665 123.059 5.66106 126.332C6.17715 134.613 6.26862 135.492 6.41204 136.595C6.87619 140.186 7.12012 140.298 7.23305 142.325C7.47472 146.638 6.58031 149.888 6.0868 151.809C4.25168 158.947 5.63508 156.719 2.98347 168.37C2.66501 169.766 1.40809 174.108 0.000976562 179.501H3.92644C6.9654 165.496 9.87901 151.519 10.3296 148.178C10.4143 147.546 16.0484 151.449 23.7209 149.329Z" fill="#543125"/>
<path d="M42.4868 118.678L42.8708 130.005L46.0125 120.614L44.4936 121.622L42.4868 118.678Z" fill="#753E2D"/>
<path d="M33.1981 161.995C32.0586 162.059 24.3997 165.258 15.0027 162.407C8.90447 160.562 7.52333 159.769 4.48663 157.906L4.10267 158.01C3.14163 159.013 2.45275 163.149 3.13259 164.648C3.39007 165.211 6.92254 168.57 14.2698 169.652C23.8689 171.065 31.215 169.78 32.6605 168.061C33.9976 166.471 34.3816 162.957 33.957 162.075C33.8892 161.939 33.311 161.988 33.1981 161.995Z" fill="#52E38C"/>
<path d="M33.1982 161.995C32.6979 162.023 30.9395 162.653 28.3421 163.112L26.9316 169.985C29.9266 169.609 31.9717 168.886 32.664 168.064C34.0011 166.474 34.3851 162.96 33.9604 162.078C33.8893 161.939 33.3111 161.988 33.1982 161.995Z" fill="#3DD37A"/>
<path d="M15.066 162.148C11.0717 161.177 8.25743 160.143 4.79498 157.824L4.10498 158.01C7.61938 160.365 10.8808 161.68 14.9463 162.665C22.9644 164.614 29.4906 163.49 33.9638 162.077L33.3766 161.693C28.9621 163.086 22.9644 164.067 15.066 162.148Z" fill="#37BC6C"/>
<path d="M23.1284 167.383C23.6637 163.364 20.9721 159.693 17.1165 159.183C13.261 158.673 9.70143 161.518 9.16609 165.536C8.63075 169.555 11.3223 173.226 15.1779 173.736C19.0335 174.246 22.593 171.401 23.1284 167.383Z" fill="#254860"/>
<path d="M16.6075 159.668C13.0208 159.193 9.69612 161.938 9.18116 165.797C8.66619 169.656 11.1586 173.169 14.7452 173.644C18.3319 174.118 21.6566 171.374 22.1716 167.515C22.6865 163.656 20.1941 160.147 16.6075 159.668Z" fill="#325572"/>
<path d="M15.4058 165.788C15.3219 165.822 15.2503 165.881 15.1998 165.956C15.1494 166.031 15.1225 166.12 15.1226 166.21C15.1226 166.3 15.1495 166.389 15.2 166.464C15.2504 166.539 15.3221 166.598 15.406 166.632C15.4898 166.667 15.5821 166.676 15.671 166.658C15.76 166.64 15.8417 166.596 15.9057 166.532C15.9698 166.468 16.0134 166.387 16.0309 166.298C16.0484 166.21 16.0392 166.118 16.0043 166.034C15.9819 165.978 15.9485 165.928 15.9061 165.885C15.8637 165.842 15.813 165.808 15.7572 165.785C15.7014 165.762 15.6416 165.751 15.5812 165.751C15.5208 165.751 15.4612 165.764 15.4058 165.788Z" fill="white"/>
<path d="M14.8482 161.819L14.248 165.266L14.5103 165.311L15.1105 161.865L14.8482 161.819Z" fill="white"/>
<path d="M15.1396 166.225L15.2255 166.479L20.453 164.672L20.3672 164.418L15.1396 166.225Z" fill="white"/>
<line x1="0.5" y1="-0.5" x2="6.63717" y2="-0.5" transform="matrix(0.994746 -0.102373 0.102854 0.994696 62.6655 39.9072)" stroke="white" stroke-linecap="round"/>
<line x1="0.5" y1="-0.5" x2="6.63718" y2="-0.5" transform="matrix(0.994746 -0.102373 0.102854 0.994696 52.8354 40.4492)" stroke="white" stroke-linecap="round"/>
<line x1="0.5" y1="-0.5" x2="6.63719" y2="-0.5" transform="matrix(0.994746 -0.102374 0.102853 0.994697 44.022 40.9351)" stroke="white" stroke-linecap="round"/>
<line x1="0.5" y1="-0.5" x2="5.95905" y2="-0.5" transform="matrix(0.994223 -0.107335 0.107836 0.994169 35.8867 41.3835)" stroke="white" stroke-linecap="round"/>
<path d="M48.466 49.5H49.5437L49.4757 46.8938L51.4563 48.2615L52 47.2169L49.9126 46.0108L52 44.7831L51.4563 43.7385L49.4563 45.1169L49.5534 42.5H48.4757L48.5437 45.1169L46.5631 43.7385L46 44.7831L48.0874 46.0215L46.0097 47.2169L46.5631 48.2723L48.5437 46.8938L48.466 49.5Z" fill="white"/>
<path d="M57.466 48.5H58.5437L58.4757 45.8938L60.4563 47.2615L61 46.2169L58.9126 45.0108L61 43.7831L60.4563 42.7385L58.4563 44.1169L58.5534 41.5H57.4757L57.5437 44.1169L55.5631 42.7385L55 43.7831L57.0874 45.0215L55.0097 46.2169L55.5631 47.2723L57.5437 45.8938L57.466 48.5Z" fill="white"/>
</g>
<defs>
<linearGradient id="paint0_linear_58_4247" x1="32.8748" y1="47.0662" x2="71.6228" y2="43.9549" gradientUnits="userSpaceOnUse">
<stop stop-color="#6FC1E9"/>
<stop offset="1" stop-color="#9CD7EB"/>
</linearGradient>
<clipPath id="clip0_58_4247">
<rect width="118" height="179" fill="white" transform="translate(0 0.5)"/>
</clipPath>
</defs>
</svg>
