<svg width="272" height="251" viewBox="0 0 272 251" fill="none" xmlns="http://www.w3.org/2000/svg">
<g clip-path="url(#clip0_58_4636)">
<rect width="271" height="250" transform="translate(0.5 0.5)" fill="white"/>
<path fill-rule="evenodd" clip-rule="evenodd" d="M145.088 28.5225L52.3499 28.5225C49.2279 28.5225 46.6738 31.0223 46.6738 34.078L46.6738 197.363C46.6738 200.418 49.2279 202.918 52.3499 202.918L165.92 202.918C169.042 202.918 171.597 200.418 171.597 197.363L171.597 54.4687L145.088 28.5225" fill="#E9EFFF"/>
<path fill-rule="evenodd" clip-rule="evenodd" d="M145.098 48.9349C145.098 51.9938 147.651 54.4963 150.772 54.4963L171.596 54.4963L145.098 28.5225L145.098 48.9349" fill="#CED3F8"/>
<path fill-rule="evenodd" clip-rule="evenodd" d="M69.3867 46.2506C69.3867 45.3398 70.14 44.6016 71.0691 44.6016C71.9983 44.6016 72.7516 45.3398 72.7516 46.2506C72.7516 47.1616 71.9983 47.8998 71.0691 47.8998C70.14 47.8998 69.3867 47.1616 69.3867 46.2506" fill="#BBC0E6"/>
<path fill-rule="evenodd" clip-rule="evenodd" d="M77.7988 46.2506C77.7988 45.3398 78.5523 44.6016 79.4814 44.6016C80.4107 44.6016 81.1637 45.3398 81.1637 46.2506C81.1637 47.1616 80.4107 47.8998 79.4814 47.8998C78.5523 47.8998 77.7988 47.1616 77.7988 46.2506" fill="#BBC0E6"/>
<path fill-rule="evenodd" clip-rule="evenodd" d="M64.3395 46.2506C64.3395 45.3398 63.5861 44.6016 62.6568 44.6016C61.728 44.6016 60.9746 45.3398 60.9746 46.2506C60.9746 47.1616 61.728 47.8998 62.6568 47.8998C63.5861 47.8998 64.3395 47.1616 64.3395 46.2506" fill="#BBC0E6"/>
<path fill-rule="evenodd" clip-rule="evenodd" d="M89.9968 46.2506C89.9968 45.3398 89.2437 44.6016 88.315 44.6016C87.3849 44.6016 86.6318 45.3398 86.6318 46.2506C86.6318 47.1616 87.3849 47.8998 88.315 47.8998C89.2437 47.8998 89.9968 47.1616 89.9968 46.2506" fill="#BBC0E6"/>
<path fill-rule="evenodd" clip-rule="evenodd" d="M95.0439 46.2506C95.0439 45.3398 95.797 44.6016 96.7271 44.6016C97.6558 44.6016 98.4089 45.3398 98.4089 46.2506C98.4089 47.1616 97.6558 47.8998 96.7271 47.8998C95.797 47.8998 95.0439 47.1616 95.0439 46.2506" fill="#BBC0E6"/>
<path fill-rule="evenodd" clip-rule="evenodd" d="M125.14 54.9087L60.7421 54.9087C60.4055 54.9087 60.1328 54.6319 60.1328 54.2903C60.1328 53.9487 60.4055 53.6719 60.7421 53.6719L125.14 53.6719C125.475 53.6719 125.749 53.9487 125.749 54.2903C125.749 54.6319 125.475 54.9087 125.14 54.9087" fill="#6600CC"/>
<path fill-rule="evenodd" clip-rule="evenodd" d="M59.292 73.4614L81.5846 73.4614L81.5846 64.3911L59.292 64.3911L59.292 73.4614Z" fill="#DDE2F8"/>
<path fill-rule="evenodd" clip-rule="evenodd" d="M87.8936 73.4614L158.557 73.4614L158.557 64.3911L87.8936 64.3911L87.8936 73.4614Z" fill="#DDE2F8"/>
<path fill-rule="evenodd" clip-rule="evenodd" d="M59.292 88.3036L81.5846 88.3036L81.5846 79.2334L59.292 79.2334L59.292 88.3036Z" fill="#DDE2F8"/>
<path fill-rule="evenodd" clip-rule="evenodd" d="M87.8936 88.3036L158.557 88.3036L158.557 79.2334L87.8936 79.2334L87.8936 88.3036Z" fill="#DDE2F8"/>
<path fill-rule="evenodd" clip-rule="evenodd" d="M59.292 103.146L81.5846 103.146L81.5846 94.0757L59.292 94.0757L59.292 103.146Z" fill="#DDE2F8"/>
<path fill-rule="evenodd" clip-rule="evenodd" d="M87.8936 103.146L158.557 103.146L158.557 94.0757L87.8936 94.0757L87.8936 103.146Z" fill="#DDE2F8"/>
<path fill-rule="evenodd" clip-rule="evenodd" d="M59.292 117.988L81.5846 117.988L81.5846 108.918L59.292 108.918L59.292 117.988Z" fill="#DDE2F8"/>
<path fill-rule="evenodd" clip-rule="evenodd" d="M87.8936 117.988L158.557 117.988L158.557 108.918L87.8936 108.918L87.8936 117.988Z" fill="#DDE2F8"/>
<path fill-rule="evenodd" clip-rule="evenodd" d="M59.292 132.83L81.5846 132.83L81.5846 123.76L59.292 123.76L59.292 132.83Z" fill="#DDE2F8"/>
<path fill-rule="evenodd" clip-rule="evenodd" d="M87.8936 132.83L158.557 132.83L158.557 123.76L87.8936 123.76L87.8936 132.83Z" fill="#DDE2F8"/>
<path fill-rule="evenodd" clip-rule="evenodd" d="M59.292 147.673L81.5846 147.673L81.5846 138.602L59.292 138.602L59.292 147.673Z" fill="#DDE2F8"/>
<path fill-rule="evenodd" clip-rule="evenodd" d="M87.8936 147.673L158.557 147.673L158.557 138.602L87.8936 138.602L87.8936 147.673Z" fill="#DDE2F8"/>
<path fill-rule="evenodd" clip-rule="evenodd" d="M59.292 162.515L81.5846 162.515L81.5846 153.445L59.292 153.445L59.292 162.515Z" fill="#DDE2F8"/>
<path fill-rule="evenodd" clip-rule="evenodd" d="M87.8936 162.515L158.557 162.515L158.557 153.445L87.8936 153.445L87.8936 162.515Z" fill="#DDE2F8"/>
<path fill-rule="evenodd" clip-rule="evenodd" d="M114.393 195.497L158.557 195.497L158.557 183.129L114.393 183.129L114.393 195.497Z" fill="#F6F6FB"/>
<path fill-rule="evenodd" clip-rule="evenodd" d="M59.292 177.357L81.5846 177.357L81.5846 168.287L59.292 168.287L59.292 177.357Z" fill="#CED3F8"/>
<path fill-rule="evenodd" clip-rule="evenodd" d="M87.8936 177.357L158.557 177.357L158.557 168.287L87.8936 168.287L87.8936 177.357Z" fill="#CED3F8"/>
<path fill-rule="evenodd" clip-rule="evenodd" d="M157.008 178.969C156.993 178.969 156.978 178.969 156.963 178.972C156.53 179.007 155.516 179.649 154.785 181.811C154.616 182.308 154.456 182.94 154.323 183.668C155.014 182.95 155.7 182.181 156.378 181.36C157.253 180.302 157.448 179.451 157.258 179.107C157.224 179.047 157.162 178.969 157.008 178.969ZM157.322 198.383C157.218 198.383 157.113 198.345 157.035 198.268C153.656 194.996 152.979 189.818 153.247 185.861C146.424 192.234 139.774 194.029 138.158 193.173C137.729 192.943 137.568 192.535 137.727 192.079C137.987 191.337 137.709 190.68 136.961 190.278C135.778 189.642 133.173 189.699 130.848 192.454C130.718 192.608 130.49 192.644 130.316 192.538C130.142 192.431 130.079 192.215 130.167 192.036C130.28 191.804 130.071 191.442 129.655 191.157C128.759 190.543 126.396 190.033 123.868 192.483C123.727 192.619 123.506 192.636 123.344 192.525C123.183 192.414 123.129 192.205 123.215 192.032C124.562 189.372 124.611 187.057 123.338 186.134C121.937 185.118 119.353 185.947 116.755 188.248C116.59 188.394 116.333 188.385 116.181 188.223C116.031 188.063 116.042 187.814 116.207 187.667C119.725 184.55 122.45 184.505 123.826 185.505C125.179 186.487 125.437 188.48 124.587 190.89C126.725 189.505 128.864 189.652 130.125 190.515C130.454 190.741 130.699 191.005 130.846 191.279C133.096 189.078 135.75 188.728 137.355 189.59C138.446 190.177 138.884 191.228 138.498 192.332C138.461 192.436 138.477 192.444 138.549 192.482C139.846 193.169 146.601 191.232 153.362 184.638C153.515 183.393 153.755 182.328 154.013 181.565C154.819 179.186 156.028 178.26 156.891 178.187C157.356 178.145 157.762 178.352 157.973 178.735C158.379 179.468 158.019 180.633 157.012 181.851C156.06 183.002 155.095 184.053 154.128 185.012C153.698 188.87 154.153 194.364 157.609 197.712C157.767 197.865 157.767 198.114 157.609 198.268C157.529 198.345 157.426 198.383 157.322 198.383V198.383Z" fill="#6600CC"/>
<path fill-rule="evenodd" clip-rule="evenodd" d="M181.271 128.295C181.271 139.63 181.311 190.433 181.311 213.638C182.75 213.638 185.521 213.638 185.521 213.638C187.885 207.885 203.647 139.24 205.246 128.295C202.049 128.295 181.271 128.295 181.271 128.295" fill="#2B2998"/>
<path fill-rule="evenodd" clip-rule="evenodd" d="M212.439 128.295C212.678 132.596 216.601 190.433 216.601 213.638C215.16 213.638 212.384 213.638 212.384 213.638C210.016 207.885 190.02 139.24 188.42 128.295C191.621 128.295 212.439 128.295 212.439 128.295" fill="#2B2998"/>
<path fill-rule="evenodd" clip-rule="evenodd" d="M194.31 77.9966C188.853 81.3472 175.58 97.8178 172.342 98.9404C169.155 100.044 158.471 92.7019 154.99 89.2559C153.778 90.4581 152.248 91.3854 152.248 91.3854C153.948 93.8696 167.364 110.441 172.827 109.72C178.292 108.998 184.483 102.586 189.218 98.9789C193.954 95.3735 194.31 77.9966 194.31 77.9966" fill="#FF6D2D"/>
<path fill-rule="evenodd" clip-rule="evenodd" d="M154.771 89.4749C152.635 88.181 153.108 85.8296 151.392 84.127C149.677 82.424 149.449 82.1551 149.175 82.6381C148.902 83.1214 150.931 85.3811 150.442 85.3426C149.602 85.2775 146.351 80.1025 145.496 80.3439C144.906 80.5103 147.113 83.6582 148.304 84.9883C146.762 84.7778 144.541 79.4886 143.894 80.1086C143.459 80.5245 145.737 84.9524 147.372 85.8349C145.927 85.6703 143.823 81.1702 143.091 81.502C142.5 81.77 144.751 85.7619 146.219 86.6191C144.94 86.2184 143.699 84.122 143.315 84.5009C142.843 84.9684 145.472 88.039 148.076 90.0163C150.134 91.5795 150.542 90.8151 151.999 91.602C153.636 90.8616 154.771 89.4749 154.771 89.4749" fill="#A54A31"/>
<path fill-rule="evenodd" clip-rule="evenodd" d="M150.985 91.8818C150.985 91.8818 154.779 88.9441 154.999 88.7158C155.811 89.2784 157.208 90.8198 157.295 90.8198C156.671 91.4656 152.996 94.9001 152.844 94.9001C152.508 94.5523 150.985 91.8818 150.985 91.8818" fill="#FF6D2D"/>
<path fill-rule="evenodd" clip-rule="evenodd" d="M212.448 128.707C209.838 128.707 181.69 128.707 181.69 128.707C182.492 117.721 182.734 89.7737 187.833 83.6249C193.867 76.3495 198.194 77.1886 204.109 83.0337C212.086 90.9164 213.67 119.547 212.448 128.707" fill="#FF6D2D"/>
<path fill-rule="evenodd" clip-rule="evenodd" d="M187.548 128.295L185.896 128.262C186.14 117.22 186.411 111.095 186.609 106.623C186.718 104.146 186.805 102.191 186.861 100.085C187.086 91.5232 190.71 82.6796 192.509 80.0581L193.888 80.9292C192.398 83.1019 188.733 91.7107 188.511 100.126C188.456 102.244 188.37 104.206 188.259 106.69C188.061 111.156 187.792 117.27 187.548 128.295" fill="#FF6D2D"/>
<path fill-rule="evenodd" clip-rule="evenodd" d="M199.6 71.5951C199.415 73.0777 199.344 78.7169 200.619 80.331C199.7 81.0191 194.85 81.9872 191.224 80.5546C192.002 79.6077 193.235 78.9699 192.242 77.2886C191.16 75.4577 189.327 77.9188 187.876 74.9186C186.182 71.4203 185.671 64.5205 187.349 62.5981C189.227 60.4462 192.974 57.8156 198.041 60.7479C202.174 63.1399 199.975 68.5822 199.6 71.5951" fill="#A54A31"/>
<path fill-rule="evenodd" clip-rule="evenodd" d="M195.84 68.2026C194.701 68.2193 195.283 65.2708 194.446 64.5685C193.457 63.7384 190.149 63.2582 186.943 63.6078C183.737 63.9553 181.735 59.8275 183.784 58.1118C185.835 56.3965 187.701 58.7602 189.23 58.2567C191.008 57.6698 190.696 55.5248 193.342 55.7496C195.786 55.9567 194.677 58.2019 196.231 58.6001C197.832 59.0103 200.185 56.9134 202.141 59.3906C203.593 61.2284 201.411 62.3025 201.643 64.3474C201.788 65.6241 205.011 69.393 201.537 70.9917C198.06 72.5887 198.863 69.0841 199.047 67.6358C199.228 66.1881 198.566 65.2333 197.831 65.2042C197.099 65.1734 197.467 68.1806 195.84 68.2026" fill="#282828"/>
<path fill-rule="evenodd" clip-rule="evenodd" d="M200.083 78.821C199.244 79.249 194.008 80.1845 192.208 79.1149C191.832 79.5692 191.55 79.9792 191.365 80.4178C192.622 81.1835 197.329 81.9961 200.619 80.2727C200.41 79.6932 200.083 78.821 200.083 78.821" fill="#FF6D2D"/>
<path fill-rule="evenodd" clip-rule="evenodd" d="M171.88 30.36L167.286 28.5967C166.925 28.4585 166.518 28.5158 166.214 28.7475L162.333 31.7098C162.031 31.9418 161.878 32.3125 161.935 32.6817L162.651 37.4085C162.708 37.7781 162.963 38.0905 163.322 38.2282L167.918 39.9926C168.276 40.1303 168.686 40.0729 168.988 39.8412L172.869 36.8785C173.173 36.6473 173.325 36.2769 173.268 35.9071L172.553 31.1803C172.496 30.8107 172.239 30.4984 171.88 30.36" fill="#282828"/>
<path fill-rule="evenodd" clip-rule="evenodd" d="M30.4791 68.6895L38.0006 87.3522C38.8138 89.374 41.5196 89.7591 42.8674 88.043L55.3184 72.2174C56.6676 70.5023 55.6494 67.9762 53.486 67.6684L33.5124 64.8331C31.3476 64.5253 29.6628 66.6687 30.4791 68.6895" fill="#FF6D2D"/>
<path fill-rule="evenodd" clip-rule="evenodd" d="M209.442 86.2423C209.408 86.2423 209.372 86.237 209.338 86.2291C209.119 86.1737 208.988 85.9574 209.044 85.7464C210.957 78.6669 215.436 62.0882 231.48 48.0026C231.646 47.8561 231.906 47.8676 232.059 48.0291C232.211 48.1908 232.198 48.441 232.032 48.588C216.167 62.5155 211.732 78.9346 209.838 85.9455C209.79 86.1236 209.623 86.2423 209.442 86.2423" fill="#6600CC"/>
<path fill-rule="evenodd" clip-rule="evenodd" d="M230.91 57.7946C230.856 57.7946 230.803 57.7837 230.751 57.7606C227.464 56.2955 224.601 56.5927 223.856 56.8128C223.638 56.879 223.407 56.7381 223.346 56.4997C223.287 56.2615 223.417 56.0154 223.638 55.9502C224.511 55.6919 227.548 55.3654 231.067 56.9338C231.279 57.0282 231.379 57.2895 231.292 57.5179C231.226 57.6902 231.071 57.7944 230.91 57.7946" fill="#807DFB"/>
<path fill-rule="evenodd" clip-rule="evenodd" d="M225.036 54.9087C224.82 54.9087 224.643 54.7395 224.637 54.5265C224.583 52.3889 224.29 49.4382 223.776 48.0106C223.703 47.8065 223.81 47.5825 224.018 47.5104C224.227 47.4375 224.454 47.545 224.527 47.7488C225.153 49.4818 225.391 52.8123 225.435 54.5069C225.441 54.7234 225.266 54.9032 225.046 54.9085C225.043 54.9087 225.039 54.9087 225.036 54.9087" fill="#807DFB"/>
<path fill-rule="evenodd" clip-rule="evenodd" d="M219.169 63.5666C218.964 63.5666 218.797 63.3892 218.792 63.1667C218.761 61.4604 218.13 57.7381 217.513 56.7878C217.392 56.6036 217.433 56.3492 217.604 56.2196C217.774 56.0904 218.011 56.1343 218.13 56.319C218.897 57.5013 219.517 61.5125 219.546 63.1508C219.551 63.3761 219.385 63.5621 219.177 63.5666C219.174 63.5666 219.172 63.5666 219.169 63.5666" fill="#807DFB"/>
<path fill-rule="evenodd" clip-rule="evenodd" d="M217.004 66.4525C216.86 66.4525 216.723 66.3734 216.649 66.2343C216.545 66.0326 216.618 65.7815 216.814 65.673C216.925 65.6112 217.048 65.539 217.18 65.4607C218.537 64.6649 221.059 63.1842 224.744 64.5081C224.953 64.5834 225.064 64.8194 224.992 65.0356C224.918 65.252 224.691 65.3662 224.481 65.2908C221.14 64.0907 218.91 65.399 217.578 66.1814C217.438 66.2633 217.31 66.3384 217.194 66.4031C217.133 66.4367 217.068 66.4525 217.004 66.4525" fill="#807DFB"/>
<path fill-rule="evenodd" clip-rule="evenodd" d="M214.105 72.6368C213.898 72.6368 213.725 72.4699 213.713 72.254L213.688 71.7816C213.595 69.8749 213.468 67.2637 211.774 66.3973C211.579 66.2977 211.499 66.0542 211.596 65.8535C211.693 65.6529 211.929 65.5706 212.123 65.6703C214.23 66.7481 214.371 69.6337 214.475 71.7407L214.498 72.2078C214.51 72.4317 214.345 72.6232 214.127 72.6361C214.119 72.6365 214.113 72.6368 214.105 72.6368" fill="#807DFB"/>
<path fill-rule="evenodd" clip-rule="evenodd" d="M212.806 75.5229C212.68 75.5229 212.556 75.4646 212.476 75.3539C212.341 75.1684 212.379 74.9065 212.561 74.7691C214.063 73.6321 215.935 72.2175 219.615 72.7543C219.839 72.7871 219.995 72.9987 219.962 73.2273C219.931 73.4557 219.726 73.6166 219.499 73.5819C216.15 73.0928 214.503 74.3407 213.049 75.4407C212.976 75.4962 212.89 75.5229 212.806 75.5229" fill="#807DFB"/>
<path fill-rule="evenodd" clip-rule="evenodd" d="M211.591 78.8212C211.417 78.8212 211.259 78.6959 211.217 78.5095C210.662 76.0473 209.53 73.9967 208.405 73.4065C208.214 73.3069 208.137 73.0634 208.23 72.8625C208.325 72.6618 208.556 72.5795 208.746 72.6795C210.372 73.5316 211.476 76.1524 211.966 78.3211C212.014 78.5391 211.887 78.7582 211.681 78.8101C211.652 78.8177 211.621 78.8212 211.591 78.8212" fill="#807DFB"/>
<path fill-rule="evenodd" clip-rule="evenodd" d="M209.863 84.5931C209.758 84.5931 209.653 84.5546 209.573 84.4771C209.411 84.3209 209.411 84.0667 209.57 83.9091C210.703 82.7948 213.711 80.2821 217.118 81.014C217.341 81.0617 217.482 81.276 217.433 81.4924C217.385 81.7091 217.164 81.8461 216.943 81.7984C213.929 81.1528 211.192 83.455 210.155 84.4745C210.074 84.5538 209.969 84.5931 209.863 84.5931" fill="#807DFB"/>
<path fill-rule="evenodd" clip-rule="evenodd" d="M234.651 47.2377C234.858 46.2335 234.197 45.2546 233.172 45.0511C232.148 44.8474 231.148 45.4964 230.942 46.5007C230.733 47.5044 231.396 48.4836 232.42 48.6868C233.445 48.8905 234.443 48.2416 234.651 47.2377" fill="#FF6D2D"/>
<path fill-rule="evenodd" clip-rule="evenodd" d="M225.406 47.9805C225.567 47.1993 225.052 46.438 224.255 46.2798C223.459 46.1215 222.682 46.6263 222.521 47.4072C222.359 48.188 222.874 48.9496 223.671 49.1078C224.468 49.2657 225.244 48.7615 225.406 47.9805" fill="#FF6D2D"/>
<path fill-rule="evenodd" clip-rule="evenodd" d="M232.977 57.8753C233.139 57.0942 232.624 56.3328 231.827 56.1746C231.03 56.0161 230.254 56.5209 230.092 57.302C229.931 58.0825 230.444 58.8442 231.243 59.0025C232.038 59.1607 232.816 58.6561 232.977 57.8753" fill="#FF6D2D"/>
<path fill-rule="evenodd" clip-rule="evenodd" d="M218.675 55.8137C218.837 55.0328 218.322 54.2715 217.526 54.1129C216.729 53.955 215.952 54.4596 215.79 55.2404C215.629 56.0215 216.144 56.7828 216.94 56.9409C217.737 57.0993 218.513 56.5945 218.675 55.8137" fill="#FF6D2D"/>
<path fill-rule="evenodd" clip-rule="evenodd" d="M221.62 73.1294C221.781 72.3488 221.266 71.5873 220.469 71.4289C219.673 71.2707 218.896 71.7755 218.735 72.5562C218.572 73.3371 219.089 74.0987 219.885 74.2568C220.682 74.4152 221.458 73.9105 221.62 73.1294" fill="#FF6D2D"/>
<path fill-rule="evenodd" clip-rule="evenodd" d="M209.002 73.1294C209.163 72.349 208.647 71.5874 207.85 71.4288C207.055 71.2709 206.278 71.7757 206.117 72.5561C205.955 73.3373 206.47 74.0986 207.266 74.2568C208.063 74.4153 208.839 73.9105 209.002 73.1294" fill="#FF6D2D"/>
<path fill-rule="evenodd" clip-rule="evenodd" d="M226.663 65.5432C226.848 64.6508 226.259 63.7805 225.348 63.5999C224.438 63.4188 223.55 63.9957 223.366 64.8883C223.181 65.7809 223.77 66.6509 224.68 66.8317C225.591 67.0127 226.479 66.4358 226.663 65.5432" fill="#FF6D2D"/>
<path fill-rule="evenodd" clip-rule="evenodd" d="M213.203 65.9554C213.388 65.0628 212.8 64.193 211.888 64.012C210.979 63.8309 210.091 64.4078 209.906 65.3005C209.722 66.1929 210.31 67.0631 211.22 67.2438C212.131 67.4248 213.019 66.8482 213.203 65.9554" fill="#FF6D2D"/>
<path fill-rule="evenodd" clip-rule="evenodd" d="M219.513 82.447C219.697 81.5547 219.108 80.6845 218.199 80.5034C217.288 80.3224 216.401 80.8997 216.215 81.7918C216.031 82.6845 216.62 83.5546 217.531 83.7353C218.44 83.9163 219.328 83.3394 219.513 82.447" fill="#FF6D2D"/>
<path fill-rule="evenodd" clip-rule="evenodd" d="M242.26 143.983C247.034 143.635 248.919 147.667 249.831 150.146C248.362 150.145 242.418 149.792 242.26 143.983" fill="#BBC0E6"/>
<path fill-rule="evenodd" clip-rule="evenodd" d="M242.698 144.787C242.617 144.787 242.536 144.763 242.465 144.713C228.39 134.887 219.028 122.203 214.958 113.609C214.864 113.41 214.951 113.172 215.153 113.078C215.355 112.985 215.594 113.071 215.688 113.27C219.714 121.772 228.984 134.326 242.93 144.061C243.112 144.188 243.156 144.438 243.027 144.618C242.949 144.728 242.824 144.787 242.698 144.787" fill="#BBC0E6"/>
<path fill-rule="evenodd" clip-rule="evenodd" d="M216.583 120.05C216.999 129.343 210.299 131.208 205.245 132.83C205.336 129.978 204.859 120.012 216.583 120.05" fill="#BBC0E6"/>
<path fill-rule="evenodd" clip-rule="evenodd" d="M221.5 127.883C223.755 134.907 218.839 137.624 215.175 139.839C214.656 137.639 212.212 130.112 221.5 127.883" fill="#BBC0E6"/>
<path fill-rule="evenodd" clip-rule="evenodd" d="M227.922 134.479C231.085 140.088 227.777 143.396 225.351 146.023C224.508 144.232 221.098 138.226 227.922 134.479" fill="#BBC0E6"/>
<path fill-rule="evenodd" clip-rule="evenodd" d="M235.09 141.076C237.993 143.878 236.524 146.471 235.481 148.497C234.656 147.572 231.537 144.576 235.09 141.076" fill="#BBC0E6"/>
<path fill-rule="evenodd" clip-rule="evenodd" d="M221.229 118.47C227.892 123.44 232.635 119.6 236.371 116.811C234.213 115.441 227.083 110.089 221.229 118.47" fill="#BBC0E6"/>
<path fill-rule="evenodd" clip-rule="evenodd" d="M226.696 126.251C231.661 131.19 236.196 128.634 239.735 126.815C238.097 125.415 232.787 120.102 226.696 126.251" fill="#BBC0E6"/>
<path fill-rule="evenodd" clip-rule="evenodd" d="M234.268 135.172C238.583 137.525 241.1 135.02 243.1 133.182C241.723 132.557 237.101 130.019 234.268 135.172" fill="#BBC0E6"/>
<path fill-rule="evenodd" clip-rule="evenodd" d="M239.736 140.249C241.841 141.837 243.49 140.783 244.784 140.024C244.097 139.582 241.846 137.871 239.736 140.249" fill="#BBC0E6"/>
<path fill-rule="evenodd" clip-rule="evenodd" d="M209.872 101.354C221.965 93.8957 233.731 100.109 240.577 115.24C228.298 119.819 211.773 116.618 209.872 101.354" fill="#CED3F8"/>
<path fill-rule="evenodd" clip-rule="evenodd" d="M203.16 100.704C202.558 82.5291 217.437 73.5943 239.315 75.8718C236.493 92.381 221.944 108.519 203.16 100.704" fill="#DDE2F8"/>
<path fill-rule="evenodd" clip-rule="evenodd" d="M202.707 100.672C202.571 100.672 202.44 100.607 202.363 100.488C202.244 100.303 202.302 100.061 202.491 99.9472C205.509 98.1257 210.309 94.6463 215.391 90.9614C221.551 86.494 228.533 81.4311 234.067 78.0567C234.257 77.9417 234.507 77.9966 234.626 78.1797C234.745 78.3632 234.688 78.6056 234.499 78.721C228.994 82.0785 222.025 87.1313 215.876 91.5895C210.78 95.2849 205.967 98.7748 202.92 100.613C202.854 100.654 202.78 100.672 202.707 100.672" fill="#BBC0E6"/>
<path fill-rule="evenodd" clip-rule="evenodd" d="M185.897 215.173C185.897 214.327 185.897 213.638 185.897 213.638L181.745 213.638C181.692 215.07 181.428 215.836 181.271 216.429C182.348 216.849 183.928 215.766 185.897 215.173" fill="#A54A31"/>
<path fill-rule="evenodd" clip-rule="evenodd" d="M185.52 215.287C183.535 215.856 181.943 216.896 180.857 216.493C180.28 216.896 171.793 219.83 170.93 220.398C170.047 220.981 170.176 221.884 171.112 221.884C172.479 221.884 183.747 221.407 183.747 221.407C183.977 221.645 184.161 221.884 184.161 221.884L186.736 221.884C187.504 220.603 187.296 216.76 185.52 215.287" fill="#20196F"/>
<path fill-rule="evenodd" clip-rule="evenodd" d="M216.601 215.173C216.601 214.327 216.601 213.638 216.601 213.638L212.449 213.638C212.397 215.07 212.132 215.836 211.975 216.429C213.053 216.849 214.632 215.766 216.601 215.173" fill="#A54A31"/>
<path fill-rule="evenodd" clip-rule="evenodd" d="M216.647 215.287C214.662 215.856 213.07 216.896 211.983 216.493C211.406 216.896 202.92 219.83 202.057 220.398C201.173 220.981 201.302 221.884 202.239 221.884C203.605 221.884 214.873 221.407 214.873 221.407C215.102 221.645 215.287 221.884 215.287 221.884L217.862 221.884C218.63 220.603 218.421 216.76 216.647 215.287" fill="#20196F"/>
<path fill-rule="evenodd" clip-rule="evenodd" d="M203.714 82.633C209.33 87.2548 220.808 101.749 220.808 112.409C220.808 123.07 211.611 133.169 208.591 136.129C207.43 134.989 204.926 132.534 204.926 132.534C207.16 130.343 213.091 115.862 211.991 111.791C210.892 107.718 205.659 103.305 201.016 98.7532C196.374 94.2026 195.926 90.3693 196.741 87.4944C197.555 84.6192 201.372 80.7054 203.714 82.633" fill="#FF6D2D"/>
<path fill-rule="evenodd" clip-rule="evenodd" d="M204.97 132.418C203.919 132.418 203.231 132.458 202.301 133.406C203.231 133.901 208.61 136.129 208.61 136.129L204.97 132.418" fill="#A54A31"/>
<path fill-rule="evenodd" clip-rule="evenodd" d="M208.799 136.541C208.799 136.541 204.713 132.421 204.404 132.188C204.996 131.163 206.181 129.573 206.593 129.12C207.465 129.774 211.957 133.513 211.975 133.695C211.59 134.131 208.799 136.541 208.799 136.541" fill="#FF6D2D"/>
<path d="M70.5469 55.9365C72.3552 62.919 71.432 70.2773 67.9449 76.677C64.4577 83.0767 58.6374 88.0941 51.5395 90.8192C44.4416 93.5442 36.536 93.7966 29.2565 91.5306C21.9769 89.2645 15.8054 84.63 11.861 78.4676C7.9167 72.3051 6.46074 65.0228 7.7572 57.9411C9.05365 50.8594 13.0167 44.4474 18.9276 39.8678C24.8385 35.2882 32.3059 32.8442 39.9756 32.9791C47.6453 33.114 55.0095 35.8189 60.7327 40.6031C61.7398 39.3022 63.0757 38.2554 64.6208 37.5566C66.1658 36.8578 67.8717 36.5287 69.5858 36.5989C71.2999 36.6691 72.9686 37.1362 74.4427 37.9586C75.9168 38.781 77.1501 39.9329 78.0323 41.3112C78.9145 42.6895 79.418 44.2512 79.4978 45.8564C79.5776 47.4617 79.2311 49.0605 78.4895 50.5096C77.7478 51.9587 76.634 53.2129 75.2479 54.16C73.8618 55.1071 72.2466 55.7175 70.5469 55.9365Z" fill="#FFC107"/>
<path d="M40.4331 42.9627C47.7839 43.1528 52.7288 47.1025 52.567 52.5922C52.4598 56.2275 50.5039 58.6942 46.8185 60.6017C43.353 62.3679 42.1565 63.6967 42.0872 66.0468C42.0816 66.2373 42.036 66.4248 41.953 66.5988C41.87 66.7728 41.7512 66.9297 41.6034 67.0607C41.4557 67.1917 41.2818 67.2941 41.0918 67.3621C40.9017 67.4302 40.6993 67.4625 40.4959 67.4572L36.738 67.36C36.3366 67.3497 35.9552 67.1937 35.6742 66.9251C35.3932 66.6565 35.2345 66.2962 35.2316 65.9201L35.2302 65.7409C35.0085 61.95 36.4891 59.6364 40.0944 57.782C43.4619 56.0133 44.8883 54.8742 44.9554 52.5975C45.0225 50.3208 42.7194 48.5892 39.7987 48.5137C37.5787 48.4563 35.7921 49.423 34.9375 51.0546C34.6378 51.6066 34.1756 52.0667 33.6055 52.3805C33.0354 52.6942 32.3813 52.8484 31.7206 52.8249V52.8249C29.1744 52.7591 27.5671 50.1794 28.82 48.1022C30.8019 44.8163 34.8382 42.8181 40.4331 42.9627ZM34.3502 74.2989C34.4125 72.1875 36.3435 70.5653 38.6566 70.6251C40.9892 70.6855 42.8224 72.3865 42.7596 74.5163C42.6968 76.6461 40.7663 78.2499 38.4336 78.1896C36.101 78.1293 34.2875 76.4287 34.3502 74.2989V74.2989Z" fill="#222222"/>
</g>
<defs>
<clipPath id="clip0_58_4636">
<rect width="271" height="250" fill="white" transform="translate(0.5 0.5)"/>
</clipPath>
</defs>
</svg>
